<?xml version="1.0" encoding="UTF-8"?> <!-- Generator: Adobe Illustrator 24.3.0, SVG Export Plug-In . SVG Version: 6.00 Build 0) --> <svg xmlns="http://www.w3.org/2000/svg" xmlns:xlink="http://www.w3.org/1999/xlink" id="Слой_1" x="0px" y="0px" viewBox="0 0 496 496" style="enable-background:new 0 0 496 496;" xml:space="preserve"> <style type="text/css"> .st0{stroke:#000000;stroke-width:4;stroke-miterlimit:10;} </style> <g id="Слой_2_1_"> <g id="Layer_1"> <path class="st0" d="M464,64V32h-32V0H0v432h32v32h32v32h432V64H464z M32,416H16V16h400v16H32V416z M64,448H48V48h400v16H64V448z M480,480H80V144h400V480z M480,128H80V80h400V128z"></path> <rect x="96" y="96" class="st0" width="16" height="16"></rect> <rect x="128" y="96" class="st0" width="16" height="16"></rect> <rect x="160" y="96" class="st0" width="16" height="16"></rect> <path class="st0" d="M128,352h30.5c2,6.1,4.4,11.9,7.3,17.6l-21.6,21.5l56.6,56.6l21.6-21.5c5.7,2.9,11.6,5.3,17.7,7.3V464h80 v-30.5c6.1-2,12-4.4,17.6-7.3l21.5,21.5l56.6-56.6l-21.5-21.5c2.9-5.7,5.3-11.6,7.3-17.6H432v-32h32v-16H96v16h32V352z M335.4,320 c-4.4,30.6-32.7,51.8-63.3,47.5c-24.6-3.5-44-22.9-47.5-47.5H335.4z M144,320h64.5c4.5,39.5,40.2,67.9,79.7,63.3 c33.3-3.8,59.5-30.1,63.3-63.3H416v16h-26.5l-1.6,5.9c-2.4,8.8-5.9,17.3-10.4,25.3l-3,5.3l18.8,18.8l-34,34l-18.7-18.8l-5.3,3 c-8,4.5-16.5,8-25.3,10.4l-5.9,1.7V448h-48v-26.5l-5.9-1.6c-8.8-2.4-17.3-5.9-25.3-10.4l-5.3-3l-18.7,18.8l-33.9-34l18.8-18.8 l-3-5.3c-4.5-8-8-16.5-10.4-25.3l-1.6-5.9H144V320z"></path> <polygon class="st0" points="221.7,274.3 171.3,224 221.7,173.7 210.3,162.3 148.7,224 210.3,285.7 "></polygon> <polygon class="st0" points="349.7,285.7 411.3,224 349.7,162.3 338.3,173.7 388.7,224 338.3,274.3 "></polygon> <rect x="211.2" y="216" transform="matrix(0.581 -0.8139 0.8139 0.581 -64.9867 321.7458)" class="st0" width="137.6" height="16"></rect> </g> </g> </svg> 