<?xml version="1.0" encoding="UTF-8"?> <!-- Generator: Adobe Illustrator 24.3.0, SVG Export Plug-In . SVG Version: 6.00 Build 0) --> <svg xmlns="http://www.w3.org/2000/svg" xmlns:xlink="http://www.w3.org/1999/xlink" id="Слой_1" x="0px" y="0px" viewBox="0 0 496 496" style="enable-background:new 0 0 496 496;" xml:space="preserve"> <style type="text/css"> .st0{stroke:#000000;stroke-width:4;stroke-miterlimit:10;} </style> <g id="Слой_2_1_"> <g id="Layer_1"> <path class="st0" d="M456,80h-42.1c9-34.2-11.5-69.2-45.6-78.2s-69.2,11.5-78.2,45.6c-2.8,10.7-2.8,21.9,0,32.5H40 C17.9,80,0,97.9,0,120v288c0,22.1,17.9,40,40,40h112v32h-32v16h256v-16h-32v-32h112c22.1,0,40-17.9,40-40V120 C496,97.9,478.1,80,456,80z M429.4,128.7c3.5,3.5,3.4,9.2-0.1,12.7c-1.7,1.6-3.9,2.6-6.3,2.6c-2.4,0-4.7-0.9-6.3-2.6l-26.3-26.3 c4.8-3.6,9.1-7.9,12.7-12.7L429.4,128.7z M352,16c26.5,0,48,21.5,48,48s-21.5,48-48,48s-48-21.5-48-48C304,37.5,325.5,16,352,16z M328,480H168v-32h160V480z M480,408c0,13.3-10.7,24-24,24H40c-13.3,0-24-10.7-24-24v-8h464V408z M480,384H16V120 c0-13.3,10.7-24,24-24h256.7c15.9,27.7,49.8,39.3,79.3,27.3l29.4,29.4c9.8,9.7,25.6,9.7,35.4-0.2c4.6-4.7,7.2-11,7.2-17.5 c0-6.6-2.6-13-7.3-17.7L419.3,96H456c13.3,0,24,10.7,24,24V384z"></path> <path class="st0" d="M272,144H48v208h224v-32h32V176h-32V144z M256,336H64V160h192v16h-80v144h80V336z M288,192v112h-96V192H288z"></path> <path class="st0" d="M320,320h128V176H320V320z M336,192h96v112h-96V192z"></path> <rect x="208" y="208" class="st0" width="64" height="16"></rect> <rect x="208" y="240" class="st0" width="64" height="16"></rect> <rect x="208" y="272" class="st0" width="64" height="16"></rect> <rect x="352" y="208" class="st0" width="64" height="16"></rect> <rect x="352" y="240" class="st0" width="64" height="16"></rect> <rect x="352" y="272" class="st0" width="64" height="16"></rect> <rect x="80" y="176" class="st0" width="80" height="16"></rect> <rect x="80" y="208" class="st0" width="80" height="16"></rect> <rect x="80" y="240" class="st0" width="80" height="16"></rect> <rect x="80" y="272" class="st0" width="80" height="16"></rect> <rect x="80" y="304" class="st0" width="80" height="16"></rect> <rect x="128" y="48" class="st0" width="16" height="16"></rect> <rect x="160" y="48" class="st0" width="16" height="16"></rect> <rect x="192" y="48" class="st0" width="16" height="16"></rect> <rect x="224" y="48" class="st0" width="16" height="16"></rect> <rect x="256" y="48" class="st0" width="16" height="16"></rect> </g> </g> </svg> 