<?xml version="1.0" encoding="UTF-8"?> <!-- Generator: Adobe Illustrator 24.3.0, SVG Export Plug-In . SVG Version: 6.00 Build 0) --> <svg xmlns="http://www.w3.org/2000/svg" xmlns:xlink="http://www.w3.org/1999/xlink" id="Слой_1" x="0px" y="0px" viewBox="0 0 496 496" style="enable-background:new 0 0 496 496;" xml:space="preserve"> <style type="text/css"> .st0{stroke:#000000;stroke-width:4;stroke-miterlimit:10;} </style> <g id="Слой_2_1_"> <g id="Layer_1"> <path class="st0" d="M352,118.1V0H0v288h112.7c-0.4,5.3-0.7,10.6-0.7,16c0,105.9,86.1,192,192,192s192-86.1,192-192 C496,214.7,434.7,139.4,352,118.1z M16,16h320v48H16V16z M118.1,256c-1.3,5.2-2.4,10.6-3.4,16H16V80h320v34.7 c-5.3-0.9-10.6-1.6-16-2V96H32v96h116.2c-3.7,5.2-7.2,10.5-10.4,16H32v16h97.5c-2.4,5.2-4.6,10.5-6.5,16H32v16H118.1z M304,112 c-54.6,0-106.6,23.3-142.9,64H48v-64H304z M304,480c-97,0-176-79-176-176s79-176,176-176s176,79,176,176S401,480,304,480z"></path> <rect x="32" y="32" class="st0" width="16" height="16"></rect> <rect x="64" y="32" class="st0" width="16" height="16"></rect> <rect x="96" y="32" class="st0" width="16" height="16"></rect> <path class="st0" d="M304,144c-88.2,0-160,71.8-160,160c0,24.8,5.8,49.3,17,71.5l3.6,7.1l71.5-35.8l-3.6-7.2 c-5.6-11.1-8.5-23.3-8.5-35.7c0.1-41.1,31.1-75.4,72-79.6v48.7c-17.1,4.4-27.4,21.9-23,39c4.4,17.1,21.9,27.4,39,23 s27.4-21.9,23-39c-2.9-11.3-11.7-20.1-23-23v-48.7c40.9,4.2,71.9,38.5,72,79.6c0,12.4-2.9,24.7-8.5,35.7l-3.6,7.2l71.5,35.8 l3.6-7.1c11.2-22.2,17-46.7,17-71.5C464,215.8,392.2,144,304,144z M320,304c0,8.8-7.2,16-16,16s-16-7.2-16-16s7.2-16,16-16 S320,295.2,320,304z M436.1,361.1l-43-21.5c4.6-11.3,6.9-23.4,6.9-35.6c-0.1-49.9-38.3-91.4-88-95.6V176h-16v32.4 c-49.7,4.2-87.9,45.7-88,95.6c0,12.2,2.3,24.3,6.9,35.6l-43,21.5c-7.9-18-11.9-37.4-11.9-57.1c0-79.4,64.6-144,144-144 s144,64.6,144,144C448,323.7,444,343.1,436.1,361.1z"></path> <rect x="224" y="376" class="st0" width="160" height="16"></rect> <rect x="224" y="408" class="st0" width="128" height="16"></rect> <rect x="368" y="408" class="st0" width="16" height="16"></rect> <path class="st0" d="M413.8,326.4l15.7,3.2c1.7-8.4,2.6-17,2.6-25.6h-16C416,311.5,415.2,319,413.8,326.4z"></path> <path class="st0" d="M430.7,286.9c-3.4-25.4-14.4-49.2-31.6-68.3l-11.9,10.7c15,16.7,24.7,37.5,27.6,59.7L430.7,286.9z"></path> </g> </g> </svg> 