<?xml version="1.0" encoding="UTF-8"?> <!-- Generator: Adobe Illustrator 24.3.0, SVG Export Plug-In . SVG Version: 6.00 Build 0) --> <svg xmlns="http://www.w3.org/2000/svg" xmlns:xlink="http://www.w3.org/1999/xlink" id="Слой_1" x="0px" y="0px" viewBox="0 0 496 496" style="enable-background:new 0 0 496 496;" xml:space="preserve"> <style type="text/css"> .st0{stroke:#000000;stroke-width:4;stroke-miterlimit:10;} </style> <g id="Слой_2_1_"> <g id="Layer_1"> <rect x="32" y="32" class="st0" width="16" height="16"></rect> <rect x="64" y="32" class="st0" width="16" height="16"></rect> <rect x="96" y="32" class="st0" width="16" height="16"></rect> <path class="st0" d="M496,384V0H0v384h216v5.8c-14.7,23.7-34.6,43.6-58.3,58.2H144v48h208v-48h-13.7 c-23.7-14.6-43.7-34.6-58.3-58.2V384H496z M16,16h464v48H16V16z M16,368V80h464v288H280v-19.7l48-32v-13.8 c12.3,4.5,26-1.8,30.5-14.1c1-2.7,1.5-5.6,1.5-8.5v-8h-16v8c0,4.4-3.6,8-8,8s-8-3.6-8-8v-0.9c0-2.3,1-4.4,2.6-5.9l70.1-63.7 c19.1-17.4,20.5-47,3.1-66.2c-8.9-9.8-21.5-15.3-34.6-15.3H344c0-8.8,7.2-16,16-16V96H136v16c8.8,0,16,7.2,16,16h-25.2 C101,128,80,149,80,174.8c0,13.2,5.6,25.8,15.3,34.6l70.1,63.7c1.7,1.5,2.6,3.7,2.6,5.9v0.9c0,4.4-3.6,8-8,8s-8-3.6-8-8v-8h-16v8 c-0.1,13.1,10.4,23.9,23.5,24c2.9,0,5.8-0.5,8.5-1.5v13.8l48,32V368H16z M175.4,225c-4.9-12.3-7.4-25.3-7.4-38.5V128 c0-5.6-1.5-11.1-4.3-16h168.6c-2.8,4.9-4.3,10.4-4.3,16v58.5c0,13.2-2.5,26.3-7.4,38.5c-5.7,14.2-8.6,29.3-8.6,44.5V304H184v-34.5 C184,254.3,181.1,239.2,175.4,225z M160.6,231c2.8,7,4.7,14.2,5.9,21.6l-60.4-55c-12.6-11.4-13.5-30.9-2.1-43.5 c5.8-6.4,14.1-10.1,22.8-10.1H152v42.5C152,201.7,154.9,216.8,160.6,231z M335.4,231c5.7-14.2,8.6-29.3,8.6-44.5V144h25.2 c17,0,30.8,13.8,30.8,30.8c0,8.7-3.7,17-10.1,22.8l-60.4,54.9C330.7,245.2,332.7,238,335.4,231L335.4,231z M336,480H160v-16h176 V480z M310.6,448H185.4c16.9-13.5,31.4-29.7,43-48h39.3C279.2,418.3,293.7,434.5,310.6,448z M232,384v-32h32v32H232z M269.6,336 h-43.2l-24-16h91.2L269.6,336z"></path> </g> </g> </svg> 