<?xml version="1.0" encoding="UTF-8"?> <svg xmlns="http://www.w3.org/2000/svg" height="512pt" viewBox="0 -32 512 512" width="512pt"> <g id="surface1"> <path d="M 495.128906 0 L 16.871094 0 C 7.566406 0 0 7.566406 0 16.871094 L 0 430.535156 C 0 439.839844 7.566406 447.40625 16.871094 447.40625 L 495.128906 447.40625 C 504.433594 447.40625 512 439.839844 512 430.535156 L 512 16.871094 C 512 7.566406 504.433594 0 495.128906 0 Z M 482 30 L 482 99.160156 L 30 99.160156 L 30 30 Z M 30 417.40625 L 30 129.160156 L 482 129.160156 L 482 417.40625 Z M 30 417.40625 " style=" stroke:none;fill-rule:nonzero;fill:rgb(0%,0%,0%);fill-opacity:1;"></path> <path d="M 54.039062 67.949219 C 54.128906 68.421875 54.25 68.898438 54.398438 69.371094 C 54.539062 69.839844 54.710938 70.300781 54.890625 70.75 C 55.078125 71.199219 55.289062 71.648438 55.519531 72.078125 C 55.75 72.511719 56 72.941406 56.269531 73.339844 C 56.539062 73.75 56.839844 74.152344 57.148438 74.53125 C 57.460938 74.910156 57.789062 75.28125 58.140625 75.621094 C 60.929688 78.421875 64.789062 80.019531 68.738281 80.019531 C 72.6875 80.019531 76.558594 78.417969 79.347656 75.621094 C 82.140625 72.828125 83.738281 68.96875 83.738281 65.019531 C 83.738281 64.53125 83.71875 64.03125 83.671875 63.539062 C 83.621094 63.058594 83.550781 62.570312 83.449219 62.089844 C 83.347656 61.609375 83.230469 61.128906 83.089844 60.660156 C 82.949219 60.199219 82.78125 59.730469 82.589844 59.28125 C 82.410156 58.828125 82.199219 58.378906 81.96875 57.949219 C 81.742188 57.519531 81.480469 57.097656 81.210938 56.691406 C 80.9375 56.28125 80.648438 55.878906 80.339844 55.507812 C 80.03125 55.117188 79.691406 54.757812 79.351562 54.410156 C 79 54.058594 78.628906 53.726562 78.25 53.417969 C 77.878906 53.109375 77.480469 52.820312 77.070312 52.550781 C 76.660156 52.277344 76.238281 52.019531 75.808594 51.789062 C 75.378906 51.558594 74.929688 51.347656 74.480469 51.167969 C 74.03125 50.980469 73.558594 50.808594 73.097656 50.667969 C 72.628906 50.527344 72.148438 50.410156 71.667969 50.308594 C 71.1875 50.210938 70.699219 50.140625 70.21875 50.089844 C 65.769531 49.648438 61.269531 51.269531 58.140625 54.410156 C 57.789062 54.757812 57.460938 55.117188 57.148438 55.507812 C 56.839844 55.878906 56.539062 56.28125 56.269531 56.691406 C 56 57.097656 55.75 57.519531 55.519531 57.949219 C 55.289062 58.378906 55.078125 58.828125 54.890625 59.28125 C 54.710938 59.730469 54.539062 60.199219 54.398438 60.660156 C 54.25 61.128906 54.128906 61.609375 54.039062 62.089844 C 53.9375 62.570312 53.871094 63.058594 53.820312 63.539062 C 53.769531 64.03125 53.738281 64.53125 53.738281 65.019531 C 53.738281 65.507812 53.769531 66 53.820312 66.488281 C 53.871094 66.980469 53.9375 67.46875 54.039062 67.949219 Z M 54.039062 67.949219 " style=" stroke:none;fill-rule:nonzero;fill:rgb(0%,0%,0%);fill-opacity:1;"></path> <path d="M 109.230469 76.609375 C 109.609375 76.921875 110.007812 77.21875 110.417969 77.488281 C 110.816406 77.761719 111.25 78.011719 111.679688 78.238281 C 112.109375 78.46875 112.558594 78.679688 113.007812 78.871094 C 113.460938 79.050781 113.917969 79.21875 114.390625 79.359375 C 114.847656 79.507812 115.328125 79.628906 115.808594 79.71875 C 116.289062 79.820312 116.78125 79.890625 117.269531 79.941406 C 117.757812 79.988281 118.25 80.019531 118.738281 80.019531 C 119.230469 80.019531 119.730469 79.988281 120.21875 79.941406 C 120.699219 79.890625 121.1875 79.820312 121.667969 79.71875 C 122.148438 79.628906 122.628906 79.507812 123.097656 79.359375 C 123.558594 79.21875 124.03125 79.050781 124.480469 78.871094 C 124.929688 78.679688 125.378906 78.46875 125.808594 78.238281 C 126.238281 78.011719 126.660156 77.761719 127.070312 77.488281 C 127.480469 77.21875 127.878906 76.921875 128.25 76.609375 C 128.628906 76.300781 129 75.96875 129.351562 75.621094 C 132.140625 72.828125 133.742188 68.96875 133.742188 65.019531 C 133.742188 64.53125 133.71875 64.03125 133.671875 63.539062 C 133.621094 63.058594 133.550781 62.570312 133.449219 62.089844 C 133.351562 61.609375 133.230469 61.128906 133.089844 60.660156 C 132.949219 60.199219 132.78125 59.730469 132.589844 59.28125 C 132.410156 58.828125 132.199219 58.378906 131.972656 57.949219 C 131.742188 57.519531 131.480469 57.097656 131.210938 56.691406 C 130.941406 56.28125 130.648438 55.878906 130.339844 55.507812 C 130.03125 55.117188 129.699219 54.757812 129.351562 54.410156 C 129 54.058594 128.632812 53.726562 128.25 53.417969 C 127.882812 53.109375 127.480469 52.820312 127.070312 52.550781 C 126.660156 52.277344 126.242188 52.019531 125.808594 51.789062 C 125.378906 51.558594 124.929688 51.347656 124.480469 51.167969 C 124.03125 50.980469 123.558594 50.808594 123.101562 50.667969 C 122.628906 50.527344 122.148438 50.410156 121.671875 50.308594 C 121.191406 50.210938 120.699219 50.140625 120.21875 50.089844 C 119.242188 49.988281 118.25 49.988281 117.269531 50.089844 C 116.78125 50.140625 116.289062 50.210938 115.808594 50.308594 C 115.332031 50.410156 114.851562 50.53125 114.390625 50.667969 C 113.921875 50.808594 113.460938 50.980469 113.011719 51.167969 C 112.558594 51.347656 112.109375 51.558594 111.679688 51.789062 C 111.25 52.019531 110.820312 52.277344 110.421875 52.550781 C 110.011719 52.820312 109.609375 53.109375 109.230469 53.417969 C 108.851562 53.726562 108.480469 54.058594 108.140625 54.410156 C 107.789062 54.757812 107.460938 55.117188 107.148438 55.507812 C 106.839844 55.878906 106.539062 56.28125 106.269531 56.691406 C 106 57.097656 105.75 57.519531 105.519531 57.949219 C 105.289062 58.378906 105.082031 58.828125 104.890625 59.28125 C 104.699219 59.730469 104.539062 60.199219 104.398438 60.660156 C 104.25 61.128906 104.128906 61.609375 104.03125 62.089844 C 103.941406 62.570312 103.859375 63.058594 103.820312 63.539062 C 103.769531 64.03125 103.742188 64.53125 103.742188 65.019531 C 103.742188 68.96875 105.339844 72.828125 108.140625 75.621094 C 108.480469 75.96875 108.851562 76.300781 109.230469 76.609375 Z M 109.230469 76.609375 " style=" stroke:none;fill-rule:nonzero;fill:rgb(0%,0%,0%);fill-opacity:1;"></path> <path d="M 168.738281 80.019531 C 169.230469 80.019531 169.730469 79.988281 170.21875 79.941406 C 170.699219 79.890625 171.1875 79.820312 171.667969 79.71875 C 172.148438 79.628906 172.628906 79.507812 173.097656 79.359375 C 173.558594 79.21875 174.03125 79.050781 174.480469 78.871094 C 174.929688 78.679688 175.378906 78.46875 175.808594 78.238281 C 176.238281 78.011719 176.660156 77.761719 177.070312 77.488281 C 177.480469 77.21875 177.878906 76.921875 178.25 76.609375 C 178.640625 76.300781 179 75.96875 179.351562 75.621094 C 179.699219 75.28125 180.03125 74.910156 180.339844 74.53125 C 180.648438 74.148438 180.941406 73.75 181.210938 73.339844 C 181.480469 72.941406 181.738281 72.511719 181.96875 72.078125 C 182.199219 71.648438 182.410156 71.199219 182.589844 70.75 C 182.78125 70.300781 182.949219 69.839844 183.089844 69.371094 C 183.230469 68.898438 183.351562 68.421875 183.449219 67.949219 C 183.550781 67.46875 183.621094 66.980469 183.671875 66.488281 C 183.71875 66 183.738281 65.511719 183.738281 65.019531 C 183.738281 64.53125 183.71875 64.03125 183.671875 63.539062 C 183.621094 63.058594 183.550781 62.570312 183.449219 62.089844 C 183.347656 61.609375 183.230469 61.128906 183.089844 60.660156 C 182.949219 60.199219 182.78125 59.730469 182.589844 59.28125 C 182.410156 58.828125 182.199219 58.378906 181.96875 57.949219 C 181.742188 57.519531 181.480469 57.097656 181.210938 56.691406 C 180.9375 56.28125 180.648438 55.878906 180.339844 55.507812 C 180.03125 55.117188 179.699219 54.757812 179.351562 54.410156 C 179 54.058594 178.640625 53.726562 178.25 53.417969 C 177.878906 53.109375 177.480469 52.820312 177.070312 52.550781 C 176.660156 52.277344 176.238281 52.019531 175.808594 51.789062 C 175.378906 51.558594 174.929688 51.347656 174.480469 51.167969 C 174.03125 50.980469 173.558594 50.808594 173.097656 50.667969 C 172.628906 50.527344 172.148438 50.410156 171.667969 50.308594 C 171.1875 50.210938 170.699219 50.140625 170.21875 50.089844 C 169.238281 49.988281 168.25 49.988281 167.269531 50.089844 C 166.78125 50.140625 166.289062 50.210938 165.808594 50.308594 C 165.339844 50.410156 164.859375 50.53125 164.390625 50.667969 C 163.917969 50.808594 163.460938 50.980469 163.007812 51.167969 C 162.558594 51.347656 162.109375 51.558594 161.679688 51.789062 C 161.25 52.019531 160.820312 52.277344 160.417969 52.550781 C 160.007812 52.820312 159.609375 53.109375 159.230469 53.417969 C 158.851562 53.726562 158.480469 54.058594 158.140625 54.410156 C 157.789062 54.757812 157.460938 55.117188 157.148438 55.507812 C 156.839844 55.878906 156.539062 56.28125 156.269531 56.691406 C 156 57.097656 155.75 57.519531 155.519531 57.949219 C 155.289062 58.378906 155.078125 58.828125 154.890625 59.28125 C 154.710938 59.730469 154.539062 60.199219 154.398438 60.660156 C 154.25 61.128906 154.128906 61.609375 154.039062 62.089844 C 153.9375 62.570312 153.871094 63.058594 153.820312 63.539062 C 153.769531 64.03125 153.738281 64.53125 153.738281 65.019531 C 153.738281 68.96875 155.339844 72.828125 158.140625 75.621094 C 160.929688 78.421875 164.789062 80.019531 168.738281 80.019531 Z M 168.738281 80.019531 " style=" stroke:none;fill-rule:nonzero;fill:rgb(0%,0%,0%);fill-opacity:1;"></path> <path d="M 351.949219 189.269531 L 265.976562 159.511719 C 263.984375 158.820312 261.894531 158.457031 259.796875 158.382812 C 259.554688 158.371094 259.3125 158.347656 259.066406 158.347656 C 258.835938 158.347656 258.613281 158.371094 258.390625 158.382812 C 256.269531 158.449219 254.164062 158.8125 252.164062 159.507812 L 168.097656 188.609375 C 163.503906 190.199219 159.613281 193.378906 157.152344 197.550781 C 154.675781 201.734375 153.765625 206.675781 154.585938 211.464844 L 174.105469 325.332031 C 174.578125 328.089844 175.578125 330.679688 177.070312 333.039062 C 178.566406 335.394531 180.480469 337.402344 182.773438 339.007812 L 247.191406 384.101562 C 250.691406 386.550781 254.796875 387.84375 259.066406 387.84375 C 263.339844 387.84375 267.445312 386.546875 270.941406 384.101562 L 336.339844 338.324219 C 340.28125 335.566406 343.011719 331.265625 343.828125 326.519531 L 363.894531 209.464844 C 365.394531 200.679688 360.371094 192.183594 351.949219 189.269531 Z M 325.453125 256.140625 L 274.066406 256.140625 L 274.066406 194.058594 L 332.621094 214.328125 Z M 244.066406 194.058594 L 244.066406 256.140625 L 192.679688 256.140625 L 185.511719 214.328125 Z M 197.824219 286.140625 L 244.066406 286.140625 L 244.066406 345.292969 L 203.039062 316.574219 Z M 274.066406 345.292969 L 274.066406 286.144531 L 320.308594 286.144531 L 315.09375 316.574219 Z M 274.066406 345.292969 " style=" stroke:none;fill-rule:nonzero;fill:rgb(0%,0%,0%);fill-opacity:1;"></path> </g> </svg> 