<?xml version="1.0" encoding="UTF-8"?> <svg xmlns="http://www.w3.org/2000/svg" id="Capa_1" height="512" viewBox="0 0 512 512" width="512"> <g> <path d="m121 285v15h90v-15c0-19.556 12.539-36.239 30-42.43v40.458l132.042-88.028-132.042-88.028v43.855c-67.405 7.487-120 64.804-120 134.173zm135-105h15v-16.972l47.958 31.972-47.958 31.972v-16.972h-15c-36.219 0-66.524 25.809-73.493 60h-30.438c7.3-50.817 51.126-90 103.931-90z"></path> <path d="m301 285c0 19.556-12.539 36.239-30 42.43v-40.458l-132.042 88.028 132.042 88.028v-43.856c67.405-7.486 120-64.803 120-134.172v-15h-90zm28.493 15h30.438c-7.301 50.817-51.127 90-103.932 90h-15v16.972l-47.957-31.972 47.958-31.972v16.972h15c36.219 0 66.523-25.809 73.493-60z"></path> <path d="m159.787 0-98.787 98.787v413.213h390v-512zm-8.787 51.213v38.787h-38.787zm270 430.787h-330v-362h90v-90h240z"></path> </g> </svg> 