<?xml version="1.0" encoding="UTF-8"?> <svg xmlns="http://www.w3.org/2000/svg" id="Layer_1" height="512" viewBox="0 0 510 510" width="512"> <g> <path d="m0 0v330h240v-231.213l-98.787-98.787zm150 51.213 38.787 38.787h-38.787zm-120 248.787v-270h90v90h90v180z"></path> <path d="m411.213 180h-141.213v330h240v-231.213zm8.787 51.213 38.787 38.787h-38.787zm-120 248.787v-270h90v90h90v180z"></path> <path d="m60 60h30v30h-30z"></path> <path d="m60 120h30v30h-30z"></path> <path d="m60 180h120v30h-120z"></path> <path d="m60 240h120v30h-120z"></path> <path d="m330 240h30v30h-30z"></path> <path d="m330 300h30v30h-30z"></path> <path d="m330 360h120v30h-120z"></path> <path d="m330 420h120v30h-120z"></path> <path d="m135 407.028 21.68 14.453 16.64-24.962-53.32-35.547-53.32 35.547 16.64 24.962 21.68-14.453v102.972h135v-30h-105z"></path> <path d="m375 102.972-21.68-14.453-16.64 24.962 53.32 35.547 53.32-35.547-16.64-24.962-21.68 14.453v-102.972h-135v30h105z"></path> </g> </svg> 