<?xml version="1.0" encoding="UTF-8"?> <svg xmlns="http://www.w3.org/2000/svg" height="512pt" viewBox="0 0 512 512" width="512pt"> <path d="m512 451.953125v-361.882813h-124.585938c-20.433593-52.644531-71.632812-90.070312-131.414062-90.070312s-110.980469 37.425781-131.414062 90.070312h-124.585938v361.882813h165.941406v30.046875h-45.050781v30h270.21875v-30h-45.050781v-30.046875zm-157.449219-361.882813h-45.003906c-2.722656-19.441406-7.085937-37.609374-13.191406-52.46875 25.160156 9.863282 45.863281 28.660157 58.195312 52.46875zm-98.550781-60.046874c1.851562.578124 9.328125 6.84375 16.359375 29.429687 2.839844 9.132813 5.144531 19.472656 6.875 30.617187h-46.46875c1.730469-11.144531 4.035156-21.484374 6.875-30.617187 7.03125-22.585937 14.507813-28.851563 16.359375-29.429687zm26.363281 90.046874c.394531 6.820313.605469 13.78125.605469 20.835938 0 7.058594-.210938 14.019531-.605469 20.835938h-52.726562c-.394531-6.816407-.605469-13.777344-.605469-20.835938 0-7.054688.210938-14.015625.605469-20.835938zm-26.363281 131.722657c-1.851562-.578125-9.328125-6.84375-16.359375-29.429688-2.839844-9.132812-5.144531-19.472656-6.875-30.621093h46.46875c-1.730469 11.148437-4.035156 21.488281-6.875 30.621093-7.03125 22.585938-14.507813 28.851563-16.359375 29.429688zm-56.40625-90.050781h-52.53125c-1.289062-6.75-1.96875-13.714844-1.96875-20.835938s.679688-14.082031 1.96875-20.835938h52.53125c-.371094 6.945313-.5625 13.917969-.5625 20.835938 0 6.921875.1875 13.894531.5625 20.835938zm2.863281 30c2.71875 19.445312 7.082031 37.613281 13.1875 52.472656-25.160156-9.863282-45.863281-28.660156-58.195312-52.472656zm107.085938 0h45.007812c-12.332031 23.8125-33.035156 42.609374-58.195312 52.472656 6.105469-14.859375 10.46875-33.027344 13.1875-52.472656zm57.363281-50.835938c0 7.121094-.679688 14.085938-1.96875 20.835938h-52.53125c.375-6.941407.5625-13.914063.5625-20.835938 0-6.917969-.1875-13.890625-.5625-20.835938h52.53125c1.289062 6.753907 1.96875 13.714844 1.96875 20.835938zm-151.261719-103.304688c-6.105469 14.855469-10.46875 33.027344-13.1875 52.46875h-45.007812c12.332031-23.808593 33.035156-42.605468 58.195312-52.46875zm-99.007812 82.46875c-1.015625 6.800782-1.542969 13.757813-1.542969 20.835938 0 77.699219 63.210938 140.910156 140.90625 140.910156s140.90625-63.210937 140.90625-140.910156c0-7.078125-.527344-14.035156-1.542969-20.835938h86.636719v221.816407h-452v-221.816407zm-86.636719 251.816407h452v50.066406h-452zm286.058594 110.113281h-120.117188v-30.046875h120.117188zm0 0"></path> </svg> 