<?xml version="1.0" encoding="UTF-8"?> <svg xmlns="http://www.w3.org/2000/svg" height="512pt" viewBox="0 0 512 512" width="512pt"> <path d="m75 391h166.828125c7.328125 66.78125 63.992187 121 134.171875 121 74.464844 0 135-61.425781 135-136 0-32.070312-11.25-61.5625-30-84.746094v-291.253906h-451v271h-30v45c0 41.355469 33.644531 75 75 75zm301 91c-57.898438 0-105-47.550781-105-106 0-57.898438 47.101562-105 105-105s105 47.101562 105 105c0 58.449219-47.101562 106-105 106zm-316-452h391v233.804688c-21.464844-14.394532-47.269531-22.804688-75-22.804688-32.074219 0-61.5625 11.25-84.75 30h-231.25zm-30 270.988281h233.804688c-11.761719 17.542969-19.519532 37.992188-21.964844 60.011719h-60.839844v-30h-30v30h-30v-30h-30v30h-16c-24.8125 0-45-20.1875-45-45zm0 0"></path> <path d="m91 150h90v-90h-90zm30-60h30v30h-30zm0 0"></path> <path d="m301 60h-90v90h90zm-30 60h-30v-30h30zm0 0"></path> <path d="m421 60h-90v90h90zm-30 60h-30v-30h30zm0 0"></path> <path d="m91 180h90v30h-90zm0 0"></path> <path d="m211 180h90v30h-90zm0 0"></path> <path d="m331 180h90v30h-90zm0 0"></path> <path d="m361 399.785156-34.394531-34.390625-21.210938 21.210938 55.605469 55.609375 85.605469-85.609375-21.210938-21.210938zm0 0"></path> </svg> 