<?xml version="1.0" encoding="UTF-8"?> <svg xmlns="http://www.w3.org/2000/svg" id="Capa_1" height="512" viewBox="0 0 512 512" width="512"> <g> <path d="m75 40h-15v-25c0-8.284-6.716-15-15-15s-15 6.716-15 15v25h-15c-8.284 0-15 6.716-15 15v339.573c0 29.227 10.61 56.821 30 78.392v24.035c0 8.284 6.716 15 15 15s15-6.716 15-15v-24.035c19.39-21.572 30-49.165 30-78.392v-339.573c0-8.284-6.716-15-15-15zm-15 354.573c0 17.734-5.245 34.663-15 49.014-9.755-14.351-15-31.279-15-49.014v-2.573h30zm0-32.573h-30v-222h30zm0-252h-30v-40h30z"></path> <path d="m497 0h-360c-8.284 0-15 6.716-15 15v482c0 8.284 6.716 15 15 15h360c8.284 0 15-6.716 15-15v-482c0-8.284-6.716-15-15-15zm-15 482h-330v-452h330z"></path> <path d="m347 241h-70c-30.327 0-55 24.673-55 55v67.58c-17.459 6.192-30 22.865-30 42.42 0 24.813 20.187 45 45 45s45-20.187 45-45c0-19.555-12.541-36.228-30-42.42v-67.58c0-13.785 11.215-25 25-25h70c30.327 0 55-24.673 55-55v-103.787l14.394 14.394c2.928 2.928 6.767 4.393 10.606 4.393s7.678-1.465 10.606-4.394c5.858-5.857 5.858-15.355 0-21.213l-40-40c-5.857-5.857-15.355-5.857-21.213 0l-40 40c-5.858 5.857-5.858 15.355 0 21.213 5.857 5.857 15.355 5.857 21.213 0l14.394-14.393v103.787c0 13.785-11.215 25-25 25zm-110 180c-8.271 0-15-6.729-15-15s6.729-15 15-15 15 6.729 15 15-6.729 15-15 15z"></path> <path d="m188.109 146.606c5.858 5.858 15.355 5.858 21.213 0l17.678-17.677 17.678 17.678c5.858 5.858 15.355 5.858 21.213 0s5.858-15.355 0-21.213l-17.678-17.678 17.678-17.678c5.858-5.858 5.858-15.355 0-21.213s-15.355-5.858-21.213 0l-17.678 17.678-17.678-17.678c-5.858-5.858-15.355-5.858-21.213 0s-5.858 15.355 0 21.213l17.678 17.678-17.678 17.678c-5.857 5.857-5.857 15.355 0 21.212z"></path> <path d="m424.678 367.109-17.678 17.678-17.678-17.678c-5.858-5.858-15.355-5.858-21.213 0s-5.858 15.355 0 21.213l17.678 17.678-17.678 17.678c-5.858 5.858-5.858 15.355 0 21.213s15.355 5.858 21.213 0l17.678-17.678 17.678 17.678c5.858 5.858 15.355 5.858 21.213 0s5.858-15.355 0-21.213l-17.678-17.678 17.678-17.678c5.858-5.858 5.858-15.355 0-21.213s-15.355-5.858-21.213 0z"></path> </g> </svg> 