<svg xmlns="http://www.w3.org/2000/svg" height="512pt" viewBox="0 -32 512 512" width="512pt"><path d="M495.129 0H16.87C7.566 0 0 7.566 0 16.871v413.664c0 9.305 7.566 16.871 16.871 16.871H495.13c9.305 0 16.871-7.566 16.871-16.87V16.87C512 7.566 504.434 0 495.129 0zM482 30v69.16H30V30zM30 417.406V129.16h452v288.246zm0 0"/><path d="M54.04 67.95c.089.472.21.948.358 1.421a14.902 14.902 0 001.122 2.707 14.626 14.626 0 001.629 2.453c.312.38.64.75.992 1.09a15.045 15.045 0 0010.597 4.399c3.95 0 7.82-1.602 10.61-4.399a15.086 15.086 0 004.39-10.601c0-.489-.02-.989-.066-1.48-.05-.481-.121-.97-.223-1.45-.101-.48-.219-.961-.36-1.43-.14-.46-.308-.93-.5-1.379-.179-.453-.39-.902-.62-1.332-.227-.43-.489-.851-.758-1.258a14.03 14.03 0 00-.871-1.183 14 14 0 00-2.09-2.09c-.371-.309-.77-.598-1.18-.867-.41-.274-.832-.531-1.261-.762-.43-.23-.88-.441-1.329-.621-.449-.188-.921-.36-1.382-.5-.47-.14-.95-.258-1.43-.36-.48-.097-.969-.167-1.45-.218-4.448-.442-8.948 1.18-12.077 4.32-.352.348-.68.707-.993 1.098-.308.37-.609.773-.878 1.183-.27.407-.52.829-.75 1.258a14.811 14.811 0 00-1.122 2.711c-.148.469-.27.95-.359 1.43-.102.48-.168.969-.219 1.45-.05.491-.082.991-.082 1.48 0 .488.032.98.082 1.468.051.492.117.98.22 1.461zm55.19 8.66c.38.312.778.609 1.188.878.398.274.832.524 1.262.75.43.23.879.442 1.328.633.453.18.91.348 1.383.488.457.149.937.27 1.418.36a15.4 15.4 0 002.93.301c.491 0 .991-.032 1.48-.079.48-.05.969-.12 1.449-.222.48-.09.96-.211 1.43-.36.46-.14.933-.308 1.382-.488.45-.191.899-.402 1.329-.633a14.294 14.294 0 002.441-1.629c.379-.308.75-.64 1.102-.988a15.103 15.103 0 004.32-12.082 14.01 14.01 0 00-.223-1.45 15.97 15.97 0 00-.36-1.429c-.14-.46-.308-.93-.5-1.379-.179-.453-.39-.902-.616-1.332a15.83 15.83 0 00-.762-1.258 13.4 13.4 0 00-.871-1.183c-.309-.39-.64-.75-.988-1.098a13.874 13.874 0 00-1.102-.992c-.367-.309-.77-.598-1.18-.867-.41-.274-.828-.531-1.261-.762-.43-.23-.88-.441-1.329-.621-.449-.188-.921-.36-1.378-.5a18.66 18.66 0 00-1.43-.36c-.48-.097-.973-.167-1.453-.218a14.311 14.311 0 00-2.95 0c-.488.05-.98.12-1.46.219-.477.101-.957.222-1.418.359-.47.14-.93.312-1.38.5a13.624 13.624 0 00-2.59 1.383c-.41.27-.812.558-1.19.867-.38.309-.75.64-1.09.992-.352.348-.68.707-.993 1.098-.308.37-.609.773-.878 1.183-.27.407-.52.829-.75 1.258-.23.43-.438.88-.63 1.332-.19.45-.35.918-.492 1.38a13.95 13.95 0 00-.578 2.878c-.05.492-.078.992-.078 1.48a15.06 15.06 0 005.488 11.59zm59.508 3.41c.492 0 .992-.032 1.48-.079.481-.05.97-.12 1.45-.222.48-.09.96-.211 1.43-.36.46-.14.933-.308 1.382-.488.45-.191.899-.402 1.329-.633a14.294 14.294 0 002.441-1.629c.39-.308.75-.64 1.102-.988.347-.34.68-.71.988-1.09a15.3 15.3 0 00.87-1.191 14.057 14.057 0 001.379-2.59c.192-.45.36-.91.5-1.379.141-.473.263-.95.36-1.422.102-.48.172-.969.223-1.46.047-.489.066-.977.066-1.47 0-.488-.02-.988-.066-1.48a14.01 14.01 0 00-.223-1.45c-.101-.48-.219-.96-.36-1.429-.14-.46-.308-.93-.5-1.379-.179-.453-.39-.902-.62-1.332-.227-.43-.489-.851-.758-1.258-.274-.41-.563-.812-.871-1.183-.309-.39-.64-.75-.988-1.098a12.798 12.798 0 00-1.102-.992c-.371-.309-.77-.598-1.18-.867-.41-.274-.832-.531-1.261-.762-.43-.23-.88-.441-1.329-.621-.449-.188-.921-.36-1.382-.5-.47-.14-.95-.258-1.43-.36-.48-.097-.969-.167-1.45-.218a14.311 14.311 0 00-2.948 0c-.489.05-.98.12-1.461.219-.47.101-.95.222-1.418.359-.473.14-.93.312-1.383.5a13.904 13.904 0 00-2.59 1.383c-.41.27-.809.558-1.188.867-.378.309-.75.64-1.09.992-.35.348-.68.707-.992 1.098-.308.37-.609.773-.878 1.183-.27.407-.52.829-.75 1.258a14.811 14.811 0 00-1.122 2.711c-.148.469-.27.95-.359 1.43-.101.48-.168.969-.219 1.45-.05.491-.082.991-.082 1.48 0 3.949 1.602 7.808 4.403 10.601a15.045 15.045 0 0010.597 4.399zM351.95 189.27l-85.973-29.758a21.128 21.128 0 00-6.18-1.13c-.242-.01-.485-.034-.73-.034-.231 0-.454.023-.676.035-2.121.066-4.227.43-6.227 1.125l-84.066 29.101a20.51 20.51 0 00-10.946 8.942 20.536 20.536 0 00-2.566 13.914l19.52 113.867a20.97 20.97 0 002.964 7.707 20.965 20.965 0 005.703 5.969l64.418 45.094a20.61 20.61 0 0011.875 3.742 20.62 20.62 0 0011.875-3.742l65.399-45.778a18.282 18.282 0 007.488-11.804l20.067-117.055a18.08 18.08 0 00-11.946-20.195zm-26.497 66.87h-51.387v-62.08l58.555 20.27zm-81.387-62.081v62.082H192.68l-7.168-41.813zm-46.242 92.082h46.242v59.152l-41.027-28.719zm76.242 59.152v-59.148h46.243l-5.215 30.43zm0 0"/></svg>