<svg xmlns="http://www.w3.org/2000/svg" height="512pt" viewBox="0 -32 512 512" width="512pt"><path d="M495.129 0H16.87C7.571 0 0 7.566 0 16.871v413.664c0 9.305 7.57 16.871 16.871 16.871H495.13c9.3 0 16.871-7.566 16.871-16.87V16.87C512 7.566 504.43 0 495.129 0zM482 30v69.16H30V30zM30 417.406V129.16h452v288.246zm0 0"/><path d="M59.23 76.61c.38.312.782.609 1.192.878.398.274.828.524 1.258.75.43.23.879.442 1.332.633.449.18.91.348 1.379.488.468.149.937.27 1.418.36.48.101.972.172 1.46.222.493.047.981.079 1.47.079.491 0 .991-.032 1.48-.079.48-.05.972-.12 1.453-.222.476-.09.957-.211 1.43-.36.457-.14.93-.308 1.378-.488.45-.191.899-.402 1.329-.633a14.294 14.294 0 002.441-1.629c.379-.308.75-.64 1.102-.988a15.1 15.1 0 004.32-12.082 14.01 14.01 0 00-.223-1.45 15.97 15.97 0 00-.36-1.429c-.14-.46-.308-.93-.5-1.379-.179-.453-.39-.902-.62-1.332a15.89 15.89 0 00-.758-1.258 13.4 13.4 0 00-.871-1.183c-.309-.39-.64-.75-.988-1.098-3.141-3.14-7.641-4.773-12.082-4.32-.489.05-.98.12-1.461.219-.48.101-.95.222-1.418.359-.47.14-.93.312-1.38.5a13.624 13.624 0 00-2.59 1.383c-.41.27-.812.558-1.19.867-.38.312-.75.64-1.09.992-.352.348-.68.707-.993 1.098-.308.37-.609.773-.878 1.183-.27.407-.52.829-.75 1.258a14.811 14.811 0 00-1.122 2.711c-.148.469-.27.95-.359 1.43a15.457 15.457 0 00-.3 2.93 15.064 15.064 0 005.491 11.59zm50 0c.38.312.782.609 1.192.878.398.274.828.524 1.258.75.43.23.879.442 1.332.633.449.18.91.348 1.379.488.468.149.937.27 1.418.36.48.101.972.172 1.46.222.493.047.981.079 1.47.079.491 0 .991-.032 1.48-.079.48-.05.972-.12 1.453-.222.476-.09.957-.211 1.43-.36.457-.14.93-.308 1.378-.488.45-.191.899-.402 1.329-.633a14.294 14.294 0 002.441-1.629c.39-.308.75-.64 1.102-.988a15.1 15.1 0 004.32-12.082 14.01 14.01 0 00-.223-1.45 15.97 15.97 0 00-.36-1.429c-.14-.46-.308-.93-.5-1.379-.179-.453-.39-.902-.62-1.332a15.89 15.89 0 00-.758-1.258 13.4 13.4 0 00-.871-1.183c-.309-.39-.64-.75-.988-1.098a12.798 12.798 0 00-1.102-.992c-.371-.309-.77-.598-1.18-.867-.41-.274-.832-.531-1.261-.762-.43-.23-.88-.441-1.329-.621-.449-.188-.921-.36-1.378-.5a18.66 18.66 0 00-1.43-.36c-.48-.097-.973-.167-1.453-.218a14.311 14.311 0 00-2.95 0c-.488.05-.98.12-1.46.219-.48.101-.95.222-1.418.359-.47.14-.93.312-1.38.5a13.624 13.624 0 00-2.59 1.383c-.41.27-.812.558-1.19.867-.38.312-.75.64-1.09.992-.352.348-.68.707-.993 1.098-.308.37-.609.773-.878 1.183-.27.407-.52.829-.75 1.258a14.811 14.811 0 00-1.122 2.711c-.148.469-.27.95-.359 1.43a15.457 15.457 0 00-.3 2.93c0 3.949 1.613 7.808 4.402 10.601.34.348.71.68 1.09.988zm59.508 3.41c.492 0 .992-.032 1.48-.079.481-.05.973-.12 1.454-.222.476-.09.957-.211 1.43-.36.468-.14.93-.308 1.378-.488.45-.191.899-.402 1.329-.633a14.294 14.294 0 002.441-1.629c.39-.308.75-.64 1.102-.988a15.1 15.1 0 004.32-12.082 14.01 14.01 0 00-.223-1.45 15.97 15.97 0 00-.36-1.429c-.14-.46-.308-.93-.5-1.379-.179-.453-.39-.902-.62-1.332a18.41 18.41 0 00-.75-1.258c-.278-.41-.57-.812-.88-1.183-.308-.39-.64-.75-.987-1.098a12.798 12.798 0 00-1.102-.992c-.371-.309-.77-.598-1.18-.867-.41-.274-.832-.531-1.261-.762-.43-.23-.88-.441-1.329-.621a13.89 13.89 0 00-1.378-.5 18.66 18.66 0 00-1.43-.36c-.48-.097-.973-.167-1.453-.218-4.438-.45-8.95 1.18-12.078 4.32-.352.348-.68.707-.993 1.098-.308.37-.609.773-.878 1.183-.27.407-.52.829-.75 1.258a14.811 14.811 0 00-1.122 2.711c-.148.469-.27.95-.359 1.43a15.457 15.457 0 00-.3 2.93c0 3.949 1.6 7.808 4.402 10.601a15.045 15.045 0 0010.597 4.399zm-34.586 144.222c-2.117-1.105-4.64-1.656-7.578-1.656-2.941 0-5.469.555-7.582 1.656-2.113 1.102-3.168 2.707-3.168 4.82v33.758H88.406v-33.757c0-2.114-1.058-3.72-3.172-4.82-2.113-1.106-4.636-1.657-7.578-1.657-2.941 0-5.465.555-7.578 1.656-2.113 1.102-3.168 2.707-3.168 4.82v87.633c0 2.114 1.055 3.746 3.168 4.895 2.113 1.148 4.637 1.723 7.578 1.723 2.942 0 5.465-.575 7.578-1.723 2.114-1.149 3.172-2.777 3.172-4.895v-37.34h27.418v37.34c0 2.114 1.055 3.746 3.168 4.895 2.113 1.148 4.64 1.723 7.582 1.723 2.938 0 5.461-.575 7.578-1.723 2.11-1.149 3.168-2.777 3.168-4.895v-87.632c0-2.114-1.054-3.72-3.168-4.82zm77.711-1.656h-59.527c-2.113 0-3.719.918-4.82 2.746-1.106 1.828-1.653 3.992-1.653 6.492 0 2.68.57 4.93 1.723 6.762 1.144 1.828 2.73 2.738 4.75 2.738h19.016v75.328c0 2.125 1.054 3.77 3.168 4.926 2.113 1.156 4.64 1.73 7.582 1.73 2.937 0 5.46-.574 7.578-1.73 2.11-1.156 3.168-2.8 3.168-4.926v-75.328h19.015c2.02 0 3.602-.91 4.75-2.738 1.149-1.832 1.727-4.082 1.727-6.762 0-2.5-.555-4.664-1.656-6.492-1.102-1.828-2.711-2.746-4.82-2.746zm80.192 0h-59.528c-2.113 0-3.718.918-4.82 2.746-1.102 1.828-1.652 3.992-1.652 6.492 0 2.68.57 4.93 1.722 6.762 1.145 1.828 2.73 2.738 4.75 2.738h19.016v75.328c0 2.125 1.055 3.77 3.172 4.926 2.11 1.156 4.637 1.73 7.578 1.73 2.937 0 5.465-.574 7.578-1.73 2.11-1.156 3.168-2.8 3.168-4.926v-75.328h19.016c2.02 0 3.601-.91 4.754-2.738 1.144-1.832 1.722-4.082 1.722-6.762 0-2.5-.55-4.664-1.656-6.492-1.102-1.828-2.71-2.746-4.82-2.746zm75.16 7.648c-5.926-5.097-13.8-7.648-23.63-7.648h-28.522c-2.387 0-4.317.644-5.786 1.93-1.468 1.289-2.207 2.804-2.207 4.547v87.632c0 2.118 1.059 3.746 3.172 4.895 2.11 1.148 4.637 1.723 7.578 1.723 2.938 0 5.461-.575 7.578-1.723 2.114-1.149 3.168-2.777 3.168-4.895v-29.761h13.641c10.195 0 18.395-2.594 24.598-7.786 6.199-5.187 9.3-13.246 9.3-24.18v-.69c0-10.93-2.964-18.946-8.89-24.044zm-12.606 26.387c0 9.188-4.132 13.777-12.402 13.777h-13.64v-29.074h13.64c8.27 0 12.402 4.598 12.402 13.781zm82.395 13.711c-3.215-2.344-6.73-4.5-10.54-6.477-3.816-1.976-7.327-3.582-10.542-4.824-3.215-1.238-5.902-2.73-8.063-4.476-2.156-1.746-3.238-3.676-3.238-5.79 0-2.292 1.149-4.245 3.445-5.855 2.297-1.605 5.743-2.41 10.336-2.41 4.317 0 8.266.875 11.848 2.617 3.586 1.746 5.926 2.617 7.027 2.617 2.664 0 4.754-1.304 6.27-3.918 1.515-2.617 2.273-5.132 2.273-7.562 0-2.555-1.035-4.73-3.101-6.531-2.067-1.797-4.73-3.098-7.992-3.903-3.262-.804-6.2-1.351-8.817-1.632a69.398 69.398 0 00-7.508-.426c-9.738 0-18.05 2.41-24.941 7.23-6.89 4.824-10.332 12.106-10.332 21.84 0 5.973 1.488 11.117 4.476 15.434 2.985 4.32 6.633 7.644 10.954 9.988a174.961 174.961 0 0012.882 6.34c4.274 1.883 7.899 3.972 10.887 6.27 2.985 2.296 4.477 4.96 4.477 7.991 0 3.032-1.332 5.305-3.996 6.82-2.664 1.516-5.786 2.274-9.372 2.274-2.847 0-5.558-.558-8.128-1.672-2.57-1.113-4.57-2.347-5.993-3.703a33.337 33.337 0 00-4.683-3.703c-1.703-1.113-3.238-1.672-4.617-1.672-2.48 0-4.664 1.29-6.547 3.86-1.883 2.574-2.824 5.144-2.824 7.714 0 4.594 3.308 8.73 9.921 12.403 6.614 3.676 14.375 5.512 23.286 5.512 10.285 0 18.601-2.637 24.937-7.915 6.34-5.277 9.508-12.652 9.508-22.125 0-5.418-1.078-10.242-3.238-14.468-2.153-4.22-4.84-7.504-8.055-9.848zm0 0"/></svg>