<svg width="958" height="152" fill="none" xmlns="http://www.w3.org/2000/svg"><path d="M146.164 71.86c0 13.572-1.629 25.107-4.886 34.607-3.121 9.5-7.804 17.236-14.046 23.207-6.108 5.972-13.64 10.383-22.597 13.233-8.957 2.714-19.203 4.071-30.739 4.071H0V4.478h63.514c6.378 0 12.825.272 19.339.814 6.65.543 13.029 1.629 19.136 3.258 6.107 1.628 11.807 3.935 17.1 6.921 5.428 2.986 10.11 6.921 14.046 11.807 4.072 4.886 7.261 10.925 9.568 18.118 2.307 7.057 3.461 15.539 3.461 25.446v1.018zM19.95 129.064h47.025c12.35 0 22.324-1.29 29.924-3.868 7.6-2.579 13.436-6.243 17.508-10.993 4.207-4.886 6.989-10.721 8.346-17.507 1.493-6.922 2.239-14.657 2.239-23.207 0-8.957-1.085-16.625-3.257-23.004-2.171-6.378-5.7-11.603-10.586-15.675-4.75-4.207-10.992-7.26-18.728-9.16-7.6-2.036-16.896-3.122-27.889-3.258H19.95v106.672zm138.501-54.761c.407-12.893 2.647-24.021 6.718-33.386 4.207-9.364 9.907-17.032 17.1-23.003 7.329-6.107 15.946-10.586 25.853-13.436C218.165 1.492 229.294 0 241.508 0c12.214 0 23.275 1.56 33.182 4.682 10.043 2.985 18.661 7.532 25.854 13.639 7.328 6.107 13.028 13.843 17.1 23.207 4.207 9.229 6.514 20.154 6.921 32.775v3.664c-.407 12.622-2.714 23.615-6.921 32.979-4.072 9.228-9.772 16.828-17.1 22.8-7.193 5.971-15.811 10.382-25.854 13.232-9.907 2.986-20.968 4.479-33.182 4.479-12.214 0-23.343-1.493-33.386-4.479-9.907-2.85-18.524-7.261-25.853-13.232-7.193-6.107-12.893-13.775-17.1-23.004-4.071-9.228-6.311-20.153-6.718-32.775v-3.664zm83.057-56.389c-9.364 0-17.914 1.221-25.65 3.664-7.6 2.443-14.114 6.107-19.543 10.993-5.292 4.75-9.432 10.789-12.417 18.118-2.85 7.193-4.275 15.675-4.275 25.446 0 9.364 1.425 17.643 4.275 24.836 2.985 7.057 7.125 13.028 12.417 17.914 5.429 4.75 11.943 8.414 19.543 10.993 7.736 2.443 16.286 3.664 25.65 3.664 9.364 0 17.847-1.221 25.447-3.664 7.735-2.443 14.25-6.039 19.542-10.789 5.429-4.886 9.568-10.857 12.418-17.915 2.986-7.192 4.479-15.539 4.479-25.039 0-9.364-1.493-17.643-4.479-24.835-2.85-7.193-6.989-13.233-12.418-18.118-5.292-5.022-11.807-8.822-19.542-11.4-7.6-2.579-16.083-3.868-25.447-3.868zm240.616 71.657c-.814 21.307-6.989 36.914-18.524 46.821-11.536 9.772-28.568 14.657-51.097 14.657-22.528 0-39.628-4.953-51.3-14.86-11.535-10.043-17.643-25.582-18.321-46.618V4.478h19.95v75.729c0 7.735.543 14.86 1.628 21.375 1.086 6.514 3.325 12.146 6.718 16.896 3.529 4.614 8.482 8.211 14.861 10.789 6.514 2.579 15.268 3.868 26.261 3.868 10.992 0 19.746-1.221 26.26-3.664 6.65-2.579 11.672-6.175 15.065-10.789 3.528-4.615 5.835-10.111 6.921-16.49 1.086-6.514 1.629-13.707 1.629-21.578V4.478h19.949v85.093zm175.827 15.878c0 14.793-4.682 25.447-14.046 31.961-9.229 6.379-22.8 9.568-40.715 9.568h-94.66V4.478h88.96c8.008 0 15.2.543 21.579 1.629 6.514.95 12.079 2.782 16.693 5.496 4.614 2.579 8.143 6.107 10.586 10.586 2.578 4.343 3.867 9.975 3.867 16.896 0 7.329-1.56 13.368-4.682 18.118-3.121 4.614-7.125 8.346-12.01 11.196 8.007 2.85 14.046 7.125 18.117 12.825 4.208 5.565 6.311 13.64 6.311 24.225zM528.48 61.274h67.178c5.836 0 10.857-.271 15.065-.814 4.207-.543 7.6-1.561 10.178-3.053 2.714-1.493 4.682-3.529 5.904-6.107 1.357-2.715 2.035-6.108 2.035-10.179 0-4.071-.746-7.329-2.239-9.771-1.357-2.579-3.461-4.479-6.311-5.7-2.714-1.358-6.175-2.24-10.382-2.647-4.207-.407-9.093-.611-14.657-.611H528.48v38.882zm0 67.79h74.71c6.922 0 12.554-.543 16.897-1.629 4.343-1.221 7.668-2.918 9.975-5.089 2.443-2.307 4.071-5.022 4.886-8.143.95-3.121 1.425-6.582 1.425-10.382 0-3.936-.408-7.397-1.222-10.382-.814-2.986-2.443-5.565-4.886-7.736-2.442-2.171-5.903-3.8-10.382-4.886-4.343-1.085-10.11-1.628-17.303-1.628h-74.1v49.875zm272.734 0v17.914H680.293V4.478h19.95v124.586h100.971zm156.409 0v17.914H821.64V4.478h129.263v17.914H841.59v38.475h88.753v17.915H841.59v50.282h116.033z" fill="#fff"/></svg>