<svg xmlns="http://www.w3.org/2000/svg" viewBox="0 0 512 512"><path d="M406.588 60.235h-47.767c-6.216-17.526-22.955-30.118-42.586-30.118h-17.639C292.381 12.588 275.633 0 256 0s-36.381 12.588-42.596 30.118h-17.639c-19.632 0-36.37 12.591-42.586 30.118h-47.767c-24.91 0-45.176 20.266-45.176 45.176v361.412c0 24.91 20.266 45.176 45.176 45.176h301.177c24.91 0 45.176-20.266 45.176-45.176V105.412c0-24.911-20.266-45.177-45.177-45.177zM180.706 75.294c0-8.303 6.755-15.059 15.059-15.059h30.118c8.316 0 15.059-6.742 15.059-15.059 0-8.303 6.755-15.059 15.059-15.059 8.303 0 15.059 6.755 15.059 15.059 0 8.317 6.742 15.059 15.059 15.059h30.118c8.303 0 15.059 6.755 15.059 15.059v15.059h-150.59V75.294zm240.941 391.53c0 8.303-6.755 15.059-15.059 15.059H105.412c-8.303 0-15.059-6.755-15.059-15.059V105.412c0-8.303 6.755-15.059 15.059-15.059h45.177v15.059c0 8.317 6.742 15.059 15.059 15.059h180.706c8.316 0 15.059-6.742 15.059-15.059V90.353h45.176c8.303 0 15.059 6.755 15.059 15.059v361.412z"/><path d="M210.824 180.706h-60.235c-8.316 0-15.059 6.742-15.059 15.059s6.742 15.059 15.059 15.059h60.235c8.316 0 15.059-6.742 15.059-15.059s-6.743-15.059-15.059-15.059zm0 105.412h-60.235c-8.316 0-15.059 6.742-15.059 15.059 0 8.316 6.742 15.059 15.059 15.059h60.235c8.316 0 15.059-6.742 15.059-15.059-.001-8.317-6.743-15.059-15.059-15.059zm0 105.411h-60.235c-8.316 0-15.059 6.742-15.059 15.059s6.742 15.059 15.059 15.059h60.235c8.316 0 15.059-6.742 15.059-15.059s-6.743-15.059-15.059-15.059zm161.235-221.472c-5.88-5.881-15.415-5.881-21.295.001l-34.529 34.528-19.47-19.469c-5.88-5.881-15.415-5.881-21.296 0s-5.881 15.415 0 21.296l30.118 30.118a15.015 15.015 0 0010.649 4.41c3.854 0 7.708-1.47 10.648-4.411l45.177-45.176c5.879-5.881 5.879-15.416-.002-21.297zm0 90.353c-5.88-5.881-15.415-5.881-21.295.001l-34.529 34.528-19.47-19.469c-5.88-5.881-15.415-5.881-21.296 0s-5.881 15.415 0 21.296l30.118 30.118a15.015 15.015 0 0010.649 4.41c3.854 0 7.708-1.47 10.648-4.411l45.177-45.176c5.879-5.882 5.879-15.416-.002-21.297zm-34.528 146.178l19.47-19.47c5.88-5.88 5.88-15.415-.001-21.295-5.88-5.881-15.415-5.881-21.296 0l-19.469 19.469-19.47-19.47c-5.88-5.881-15.415-5.881-21.296 0s-5.881 15.415 0 21.296l19.47 19.47-19.47 19.47c-5.881 5.881-5.881 15.415 0 21.296a15.014 15.014 0 0010.649 4.41c3.854 0 7.708-1.47 10.648-4.411l19.47-19.469 19.47 19.47c2.939 2.94 6.794 4.41 10.648 4.41s7.708-1.47 10.648-4.411c5.881-5.881 5.881-15.415 0-21.296l-19.471-19.469z"/></svg>