<svg xmlns="http://www.w3.org/2000/svg" id="Слой_1" x="0" y="0" viewBox="0 0 496 496" xml:space="preserve"><style>.st0{stroke:#000;stroke-width:4;stroke-miterlimit:10}</style><g id="Слой_2_1_"><g id="Layer_1"><path class="st0" d="M464 64V32h-32V0H0v432h32v32h32v32h432V64h-32zM32 416H16V16h400v16H32v384zm32 32H48V48h400v16H64v384zm416 32H80V144h400v336zm0-352H80V80h400v48z"/><path class="st0" d="M96 96h16v16H96zm32 0h16v16h-16zm32 0h16v16h-16zm-32 256h30.5c2 6.1 4.4 11.9 7.3 17.6l-21.6 21.5 56.6 56.6 21.6-21.5c5.7 2.9 11.6 5.3 17.7 7.3V464h80v-30.5c6.1-2 12-4.4 17.6-7.3l21.5 21.5 56.6-56.6-21.5-21.5c2.9-5.7 5.3-11.6 7.3-17.6H432v-32h32v-16H96v16h32v32zm207.4-32c-4.4 30.6-32.7 51.8-63.3 47.5-24.6-3.5-44-22.9-47.5-47.5h110.8zM144 320h64.5c4.5 39.5 40.2 67.9 79.7 63.3 33.3-3.8 59.5-30.1 63.3-63.3H416v16h-26.5l-1.6 5.9c-2.4 8.8-5.9 17.3-10.4 25.3l-3 5.3 18.8 18.8-34 34-18.7-18.8-5.3 3c-8 4.5-16.5 8-25.3 10.4l-5.9 1.7V448h-48v-26.5l-5.9-1.6c-8.8-2.4-17.3-5.9-25.3-10.4l-5.3-3-18.7 18.8-33.9-34 18.8-18.8-3-5.3c-4.5-8-8-16.5-10.4-25.3l-1.6-5.9H144v-16zm77.7-45.7L171.3 224l50.4-50.3-11.4-11.4-61.6 61.7 61.6 61.7zm128 11.4l61.6-61.7-61.6-61.7-11.4 11.4 50.4 50.3-50.4 50.3z"/><path transform="rotate(-54.479 280.001 223.992)" class="st0" d="M211.2 216h137.6v16H211.2z"/></g></g></svg>