<svg xmlns="http://www.w3.org/2000/svg" id="Слой_1" x="0" y="0" viewBox="0 0 496 496" xml:space="preserve"><style>.st0{stroke:#000;stroke-width:4;stroke-miterlimit:10}</style><g id="Слой_2_1_"><g id="Layer_1"><path class="st0" d="M352 118.1V0H0v288h112.7c-.4 5.3-.7 10.6-.7 16 0 105.9 86.1 192 192 192s192-86.1 192-192c0-89.3-61.3-164.6-144-185.9zM16 16h320v48H16V16zm102.1 240c-1.3 5.2-2.4 10.6-3.4 16H16V80h320v34.7c-5.3-.9-10.6-1.6-16-2V96H32v96h116.2c-3.7 5.2-7.2 10.5-10.4 16H32v16h97.5c-2.4 5.2-4.6 10.5-6.5 16H32v16h86.1zM304 112c-54.6 0-106.6 23.3-142.9 64H48v-64h256zm0 368c-97 0-176-79-176-176s79-176 176-176 176 79 176 176-79 176-176 176z"/><path class="st0" d="M32 32h16v16H32zm32 0h16v16H64zm32 0h16v16H96zm208 112c-88.2 0-160 71.8-160 160 0 24.8 5.8 49.3 17 71.5l3.6 7.1 71.5-35.8-3.6-7.2c-5.6-11.1-8.5-23.3-8.5-35.7.1-41.1 31.1-75.4 72-79.6V273c-17.1 4.4-27.4 21.9-23 39 4.4 17.1 21.9 27.4 39 23s27.4-21.9 23-39c-2.9-11.3-11.7-20.1-23-23v-48.7c40.9 4.2 71.9 38.5 72 79.6 0 12.4-2.9 24.7-8.5 35.7l-3.6 7.2 71.5 35.8 3.6-7.1c11.2-22.2 17-46.7 17-71.5 0-88.2-71.8-160-160-160zm16 160c0 8.8-7.2 16-16 16s-16-7.2-16-16 7.2-16 16-16 16 7.2 16 16zm116.1 57.1l-43-21.5c4.6-11.3 6.9-23.4 6.9-35.6-.1-49.9-38.3-91.4-88-95.6V176h-16v32.4c-49.7 4.2-87.9 45.7-88 95.6 0 12.2 2.3 24.3 6.9 35.6l-43 21.5c-7.9-18-11.9-37.4-11.9-57.1 0-79.4 64.6-144 144-144s144 64.6 144 144c0 19.7-4 39.1-11.9 57.1z"/><path class="st0" d="M224 376h160v16H224zm0 32h128v16H224zm144 0h16v16h-16zm45.8-81.6l15.7 3.2c1.7-8.4 2.6-17 2.6-25.6h-16c-.1 7.5-.9 15-2.3 22.4zm16.9-39.5c-3.4-25.4-14.4-49.2-31.6-68.3l-11.9 10.7c15 16.7 24.7 37.5 27.6 59.7l15.9-2.1z"/></g></g></svg>