<svg xmlns="http://www.w3.org/2000/svg" id="Слой_1" x="0" y="0" viewBox="0 0 496 496" xml:space="preserve"><style>.st0{stroke:#000;stroke-width:4;stroke-miterlimit:10}</style><g id="Слой_2_1_"><g id="Layer_1"><path class="st0" d="M32 32h16v16H32zm32 0h16v16H64zm32 0h16v16H96z"/><path class="st0" d="M496 384V0H0v384h216v5.8c-14.7 23.7-34.6 43.6-58.3 58.2H144v48h208v-48h-13.7c-23.7-14.6-43.7-34.6-58.3-58.2V384h216zM16 16h464v48H16V16zm0 352V80h464v288H280v-19.7l48-32v-13.8c12.3 4.5 26-1.8 30.5-14.1 1-2.7 1.5-5.6 1.5-8.5v-8h-16v8c0 4.4-3.6 8-8 8s-8-3.6-8-8v-.9c0-2.3 1-4.4 2.6-5.9l70.1-63.7c19.1-17.4 20.5-47 3.1-66.2-8.9-9.8-21.5-15.3-34.6-15.3H344c0-8.8 7.2-16 16-16V96H136v16c8.8 0 16 7.2 16 16h-25.2C101 128 80 149 80 174.8c0 13.2 5.6 25.8 15.3 34.6l70.1 63.7c1.7 1.5 2.6 3.7 2.6 5.9v.9c0 4.4-3.6 8-8 8s-8-3.6-8-8v-8h-16v8c-.1 13.1 10.4 23.9 23.5 24 2.9 0 5.8-.5 8.5-1.5v13.8l48 32V368H16zm159.4-143c-4.9-12.3-7.4-25.3-7.4-38.5V128c0-5.6-1.5-11.1-4.3-16h168.6c-2.8 4.9-4.3 10.4-4.3 16v58.5c0 13.2-2.5 26.3-7.4 38.5-5.7 14.2-8.6 29.3-8.6 44.5V304H184v-34.5c0-15.2-2.9-30.3-8.6-44.5zm-14.8 6c2.8 7 4.7 14.2 5.9 21.6l-60.4-55c-12.6-11.4-13.5-30.9-2.1-43.5 5.8-6.4 14.1-10.1 22.8-10.1H152v42.5c0 15.2 2.9 30.3 8.6 44.5zm174.8 0c5.7-14.2 8.6-29.3 8.6-44.5V144h25.2c17 0 30.8 13.8 30.8 30.8 0 8.7-3.7 17-10.1 22.8l-60.4 54.9c1.2-7.3 3.2-14.5 5.9-21.5zm.6 249H160v-16h176v16zm-25.4-32H185.4c16.9-13.5 31.4-29.7 43-48h39.3c11.5 18.3 26 34.5 42.9 48zM232 384v-32h32v32h-32zm37.6-48h-43.2l-24-16h91.2l-24 16z"/></g></g></svg>