<svg xmlns="http://www.w3.org/2000/svg" height="512" width="512"><path d="M467 29H45C20.187 29 0 49.187 0 74v268c0 24.813 20.187 45 45 45h148v66H96c-8.284 0-15 6.716-15 15s6.716 15 15 15h320c8.284 0 15-6.716 15-15s-6.716-15-15-15h-97v-66h148c24.813 0 45-20.187 45-45V74c0-24.813-20.187-45-45-45zM289 453h-66v-66h66zm193-111c0 8.271-6.729 15-15 15H45c-8.271 0-15-6.729-15-15V74c0-8.271 6.729-15 15-15h422c8.271 0 15 6.729 15 15z"/><path d="M94.71 113.069c-1.734-8.306-9.535-13.296-17.64-11.779-8.088 1.678-13.345 9.334-11.78 17.64 1.667 8.041 9.277 13.346 17.64 11.78 8.112-1.7 13.334-9.332 11.78-17.641zM224 101h-80c-8.284 0-15 6.716-15 15s6.716 15 15 15h80c8.284 0 15-6.716 15-15s-6.716-15-15-15zM94.71 177.069c-1.908-9.142-11.126-13.95-19.07-11.409a14.986 14.986 0 00-9.99 18.699c2.829 8.68 11.586 12.244 18.71 9.98 7.053-2.141 11.849-9.25 10.35-17.27zM224 165h-80c-8.284 0-15 6.716-15 15s6.716 15 15 15h80c8.284 0 15-6.716 15-15s-6.716-15-15-15zM77.07 229.29c-12.291 2.551-16.422 18.011-6.58 26.31 7.008 5.531 16.207 3.927 21.11-2.09 8.824-10.812-.553-26.836-14.53-24.22zM224 229h-80c-8.284 0-15 6.716-15 15s6.716 15 15 15h80c8.284 0 15-6.716 15-15s-6.716-15-15-15zM360 93c-47.972 0-87 39.028-87 87s39.028 87 87 87 87-39.028 87-87-39.028-87-87-87zm54.983 72H375v-39.982c19.391 5.295 34.686 20.591 39.983 39.982zM360 237c-31.43 0-57-25.57-57-57 0-26.238 17.826-48.38 42-54.982V180c0 8.284 6.716 15 15 15h54.983c-6.603 24.174-28.745 42-54.983 42zm-192 56h-24c-8.284 0-15 6.716-15 15s6.716 15 15 15h24c8.284 0 15-6.716 15-15s-6.716-15-15-15zm144 0h-24c-8.284 0-15 6.716-15 15s6.716 15 15 15h24c8.284 0 15-6.716 15-15s-6.716-15-15-15z"/></svg>