<svg xmlns="http://www.w3.org/2000/svg" viewBox="0 0 437 437"><path d="M159.538 259h-39c-5.5 0-10 4.5-10 10v157c0 5.5 4.5 10 10 10h39c5.5 0 10-4.5 10-10V269c0-5.5-4.5-10-10-10zm-10 157h-19V279h19v137zm89-180h-39c-5.5 0-10 4.5-10 10v181c0 5.5 4.5 10 10 10h39c5.5 0 10-4.5 10-10V246c0-5.5-4.5-10-10-10zm-10 180h-19V256h19v160zm-147-71h-39c-5.5 0-10 4.5-10 10v71c0 5.5 4.5 10 10 10h39c5.5 0 10-4.5 10-10v-71c0-5.5-4.5-10-10-10zm-11 71h-18v-51h18v51zm246-238h-39c-5.5 0-10 4.5-10 10v238c0 5.5 4.5 10 10 10h39c5.5 0 10-4.5 10-10V188c0-5.5-4.5-10-10-10zm-10 238h-19V198h19v218zm89-290h-39c-5.5 0-10 4.5-10 10v290c0 5.5 4.5 10 10 10h39c5.5 0 10-4.5 10-10V136c0-5.5-4.5-10-10-10zm-11 290h-18V146h18v270zm25.9-413.3c-2-1.7-4.5-2.7-7.2-2.7h-68.5c-5.5 0-10 4.5-10 10s4.5 10 10 10l44.2-.1-108.1 108.2-37.9-38.1c-1.9-1.9-4.4-3-7.1-3.1-2.7.1-5.2 1.2-7.1 3.1l-192 192.2c-4 3.8-4.1 10.2-.3 14.2s10.2 4.1 14.2.3c.1-.1.2-.2.3-.2l185-185 37.9 37.8c1.9 1.8 4.4 2.8 7.1 2.8 2.6 0 5.2-1 7.1-2.8L393.338 34l-.1 44.1c0 5.5 4.4 9.9 9.9 9.9h.1c5.5.1 9.9-4.3 10-9.8v-.1l.1-68.4c0-2.6-1.1-5.1-2.9-7z"/></svg>