<svg xmlns="http://www.w3.org/2000/svg" height="512" width="512"><path d="M75 40H60V15c0-8.284-6.716-15-15-15S30 6.716 30 15v25H15C6.716 40 0 46.716 0 55v339.573c0 29.227 10.61 56.821 30 78.392V497c0 8.284 6.716 15 15 15s15-6.716 15-15v-24.035c19.39-21.572 30-49.165 30-78.392V55c0-8.284-6.716-15-15-15zM60 394.573c0 17.734-5.245 34.663-15 49.014-9.755-14.351-15-31.279-15-49.014V392h30zM60 362H30V140h30zm0-252H30V70h30zM497 0H137c-8.284 0-15 6.716-15 15v482c0 8.284 6.716 15 15 15h360c8.284 0 15-6.716 15-15V15c0-8.284-6.716-15-15-15zm-15 482H152V30h330z"/><path d="M347 241h-70c-30.327 0-55 24.673-55 55v67.58c-17.459 6.192-30 22.865-30 42.42 0 24.813 20.187 45 45 45s45-20.187 45-45c0-19.555-12.541-36.228-30-42.42V296c0-13.785 11.215-25 25-25h70c30.327 0 55-24.673 55-55V112.213l14.394 14.394C419.322 129.535 423.161 131 427 131s7.678-1.465 10.606-4.394c5.858-5.857 5.858-15.355 0-21.213l-40-40c-5.857-5.857-15.355-5.857-21.213 0l-40 40c-5.858 5.857-5.858 15.355 0 21.213 5.857 5.857 15.355 5.857 21.213 0L372 112.213V216c0 13.785-11.215 25-25 25zM237 421c-8.271 0-15-6.729-15-15s6.729-15 15-15 15 6.729 15 15-6.729 15-15 15zm-48.891-274.394c5.858 5.858 15.355 5.858 21.213 0L227 128.929l17.678 17.678c5.858 5.858 15.355 5.858 21.213 0s5.858-15.355 0-21.213l-17.678-17.678 17.678-17.678c5.858-5.858 5.858-15.355 0-21.213s-15.355-5.858-21.213 0L227 86.503l-17.678-17.678c-5.858-5.858-15.355-5.858-21.213 0s-5.858 15.355 0 21.213l17.678 17.678-17.678 17.678c-5.857 5.857-5.857 15.355 0 21.212zm236.569 220.503L407 384.787l-17.678-17.678c-5.858-5.858-15.355-5.858-21.213 0s-5.858 15.355 0 21.213L385.787 406l-17.678 17.678c-5.858 5.858-5.858 15.355 0 21.213s15.355 5.858 21.213 0L407 427.213l17.678 17.678c5.858 5.858 15.355 5.858 21.213 0s5.858-15.355 0-21.213L428.213 406l17.678-17.678c5.858-5.858 5.858-15.355 0-21.213s-15.355-5.858-21.213 0z"/></svg>