<svg xmlns="http://www.w3.org/2000/svg" height="512" viewBox="0 0 24 24" width="512"><path d="M7.75 7a.75.75 0 01-.53-1.281l3-3a.75.75 0 01.865-.141l1.517.758L15.54.398a.75.75 0 111.061 1.061l-3.32 3.32a.75.75 0 01-.865.141l-1.517-.758L8.28 6.78a.744.744 0 01-.53.22z"/><path d="M16.25 4a.75.75 0 01-.75-.75V1.5h-1.75a.75.75 0 010-1.5h2.5a.75.75 0 01.75.75v2.5a.75.75 0 01-.75.75zm-7.5 20a.748.748 0 01-.75-.75V12.785L.189 3.998A.752.752 0 01.75 2.75h5.76a.75.75 0 010 1.5H2.42l6.891 7.752a.748.748 0 01.189.498v9.576l1.114-.517a.75.75 0 01.631 1.361l-2.18 1.01a.741.741 0 01-.315.07zm8.94-13.49a.75.75 0 01-.561-1.248L21.58 4.25h-2.33a.75.75 0 010-1.5h4c.295 0 .563.173.685.442.12.27.072.585-.124.806l-5.56 6.26a.747.747 0 01-.561.252zM18 22a.75.75 0 01-.75-.75v-.929a.75.75 0 011.5 0v.929A.75.75 0 0118 22z"/><path d="M18.208 21.071H16.75a.75.75 0 010-1.5h1.458c.138 0 .292-.168.292-.411s-.154-.411-.292-.411h-.416c-.988 0-1.792-.857-1.792-1.911s.804-1.911 1.792-1.911h1.458a.75.75 0 010 1.5h-1.458c-.138 0-.292.168-.292.411s.154.411.292.411h.416c.988 0 1.792.857 1.792 1.911s-.804 1.911-1.792 1.911z"/><path d="M18 16.429a.75.75 0 01-.75-.75v-.929a.75.75 0 011.5 0v.929a.75.75 0 01-.75.75z"/><path d="M18 24c-3.309 0-6-2.691-6-6s2.691-6 6-6 6 2.691 6 6-2.691 6-6 6zm0-10.5c-2.481 0-4.5 2.019-4.5 4.5s2.019 4.5 4.5 4.5 4.5-2.019 4.5-4.5-2.019-4.5-4.5-4.5z"/></svg>