<svg xmlns="http://www.w3.org/2000/svg" height="512" viewBox="0 0 511.771 511.771" width="512"><path d="M218.116 271.21l-163.45-88.83c-5.461-2.968-12.109.986-12.109 7.201v206.062a8.198 8.198 0 004.145 7.125l163.451 92.921c5.463 3.106 12.246-.84 12.246-7.125V278.41a8.198 8.198 0 00-4.283-7.2zm217.015-162.887L256.893 15.92a8.195 8.195 0 00-7.588.023L73.694 108.347c-5.83 3.068-5.841 11.412-.018 14.495l175.611 92.979a8.195 8.195 0 007.625.023l178.239-92.979c5.881-3.068 5.87-11.488-.02-14.542zm21.974 74.057l-163.451 88.83a8.195 8.195 0 00-4.282 7.201v210.153c0 6.285 6.782 10.23 12.245 7.125l163.451-92.921a8.196 8.196 0 004.145-7.125V189.581c.001-6.215-6.647-10.169-12.108-7.201z" fill="none" stroke="#000" stroke-width="30" stroke-linecap="round" stroke-linejoin="round" stroke-miterlimit="10"/></svg>