<svg width="958" height="152" viewBox="0 0 958 152" fill="none" xmlns="http://www.w3.org/2000/svg">
<path d="M146.164 71.86C146.164 85.432 144.535 96.967 141.278 106.467C138.157 115.967 133.474 123.703 127.232 129.674C121.124 135.646 113.592 140.057 104.635 142.907C95.678 145.621 85.432 146.978 73.896 146.978H0V4.47803H63.514C69.892 4.47803 76.339 4.74999 82.853 5.29199C89.503 5.83499 95.882 6.92099 101.989 8.54999C108.096 10.178 113.796 12.485 119.089 15.471C124.517 18.457 129.199 22.392 133.135 27.278C137.207 32.164 140.396 38.203 142.703 45.396C145.01 52.453 146.164 60.935 146.164 70.842V71.86ZM19.95 129.064H66.975C79.325 129.064 89.299 127.774 96.899 125.196C104.499 122.617 110.335 118.953 114.407 114.203C118.614 109.317 121.396 103.482 122.753 96.696C124.246 89.774 124.992 82.039 124.992 73.489C124.992 64.532 123.907 56.864 121.735 50.485C119.564 44.107 116.035 38.882 111.149 34.81C106.399 30.603 100.157 27.55 92.421 25.65C84.821 23.614 75.525 22.528 64.532 22.392H19.95V129.064ZM158.451 74.303C158.858 61.41 161.098 50.282 165.169 40.917C169.376 31.553 175.076 23.885 182.269 17.914C189.598 11.807 198.215 7.32803 208.122 4.47803C218.165 1.49203 229.294 0 241.508 0C253.722 0 264.783 1.56001 274.69 4.68201C284.733 7.66701 293.351 12.214 300.544 18.321C307.872 24.428 313.572 32.164 317.644 41.528C321.851 50.757 324.158 61.682 324.565 74.303V77.967C324.158 90.589 321.851 101.582 317.644 110.946C313.572 120.174 307.872 127.774 300.544 133.746C293.351 139.717 284.733 144.128 274.69 146.978C264.783 149.964 253.722 151.457 241.508 151.457C229.294 151.457 218.165 149.964 208.122 146.978C198.215 144.128 189.598 139.717 182.269 133.746C175.076 127.639 169.376 119.971 165.169 110.742C161.098 101.514 158.858 90.589 158.451 77.967V74.303ZM241.508 17.914C232.144 17.914 223.594 19.135 215.858 21.578C208.258 24.021 201.744 27.685 196.315 32.571C191.023 37.321 186.883 43.36 183.898 50.689C181.048 57.882 179.623 66.364 179.623 76.135C179.623 85.499 181.048 93.778 183.898 100.971C186.883 108.028 191.023 113.999 196.315 118.885C201.744 123.635 208.258 127.299 215.858 129.878C223.594 132.321 232.144 133.542 241.508 133.542C250.872 133.542 259.355 132.321 266.955 129.878C274.69 127.435 281.205 123.839 286.497 119.089C291.926 114.203 296.065 108.232 298.915 101.174C301.901 93.982 303.394 85.635 303.394 76.135C303.394 66.771 301.901 58.492 298.915 51.3C296.065 44.107 291.926 38.067 286.497 33.182C281.205 28.16 274.69 24.36 266.955 21.782C259.355 19.203 250.872 17.914 241.508 17.914ZM482.124 89.571C481.31 110.878 475.135 126.485 463.6 136.392C452.064 146.164 435.032 151.049 412.503 151.049C389.975 151.049 372.875 146.096 361.203 136.189C349.668 126.146 343.56 110.607 342.882 89.571V4.47803H362.832V80.207C362.832 87.942 363.375 95.067 364.46 101.582C365.546 108.096 367.785 113.728 371.178 118.478C374.707 123.092 379.66 126.689 386.039 129.267C392.553 131.846 401.307 133.135 412.3 133.135C423.292 133.135 432.046 131.914 438.56 129.471C445.21 126.892 450.232 123.296 453.625 118.682C457.153 114.067 459.46 108.571 460.546 102.192C461.632 95.678 462.175 88.485 462.175 80.614V4.47803H482.124V89.571ZM657.951 105.449C657.951 120.242 653.269 130.896 643.905 137.41C634.676 143.789 621.105 146.978 603.19 146.978H508.53V4.47803H597.49C605.498 4.47803 612.69 5.02099 619.069 6.10699C625.583 7.05699 631.148 8.88903 635.762 11.603C640.376 14.182 643.905 17.71 646.348 22.189C648.926 26.532 650.215 32.164 650.215 39.085C650.215 46.414 648.655 52.453 645.533 57.203C642.412 61.817 638.408 65.549 633.523 68.399C641.53 71.249 647.569 75.524 651.64 81.224C655.848 86.789 657.951 94.864 657.951 105.449ZM528.48 61.274H595.658C601.494 61.274 606.515 61.003 610.723 60.46C614.93 59.917 618.323 58.899 620.901 57.407C623.615 55.914 625.583 53.878 626.805 51.3C628.162 48.585 628.84 45.192 628.84 41.121C628.84 37.05 628.094 33.792 626.601 31.35C625.244 28.771 623.14 26.871 620.29 25.65C617.576 24.292 614.115 23.41 609.908 23.003C605.701 22.596 600.815 22.392 595.251 22.392H528.48V61.274ZM528.48 129.064H603.19C610.112 129.064 615.744 128.521 620.087 127.435C624.43 126.214 627.755 124.517 630.062 122.346C632.505 120.039 634.133 117.324 634.948 114.203C635.898 111.082 636.373 107.621 636.373 103.821C636.373 99.885 635.965 96.424 635.151 93.439C634.337 90.453 632.708 87.874 630.265 85.703C627.823 83.532 624.362 81.903 619.883 80.817C615.54 79.732 609.773 79.189 602.58 79.189H528.48V129.064ZM801.214 129.064V146.978H680.293V4.47803H700.243V129.064H801.214ZM957.623 129.064V146.978H821.64V4.47803H950.903V22.392H841.59V60.867H930.343V78.782H841.59V129.064H957.623Z" fill="white"/>
</svg>
