<svg xmlns="http://www.w3.org/2000/svg" width="24" height="24" fill="none"><circle cx="12" cy="12" r="12" fill="#000"/><path d="M11.277 5.94a5.344 5.344 0 00-5.337 5.337 5.344 5.344 0 005.337 5.338 5.344 5.344 0 005.338-5.338 5.344 5.344 0 00-5.338-5.337zm0 9.69a4.357 4.357 0 01-4.352-4.353c0-2.4 1.952-4.352 4.352-4.352 2.4 0 4.353 1.953 4.353 4.352 0 2.4-1.953 4.353-4.353 4.353z" fill="#fff"/><path d="M17.916 17.22l-2.825-2.826a.492.492 0 10-.697.697l2.825 2.825a.49.49 0 00.697 0 .492.492 0 000-.697z" fill="#fff"/></svg>