<svg xmlns="http://www.w3.org/2000/svg" width="322" height="329" fill="none"><path d="M161.186.269l13.967 103.135 57.333-86.862-32.164 98.982 89.342-53.383-71.926 75.223 103.658-9.332-97.442 36.567 97.442 36.567-103.658-9.333 71.926 75.224-89.342-53.384 32.164 98.982-57.333-86.862-13.967 103.136-13.967-103.136-57.333 86.862 32.164-98.982-89.343 53.384 71.926-75.224L.976 201.166l97.441-36.567L.976 128.032l103.657 9.332L32.708 62.14l89.342 53.384-32.164-98.982 57.333 86.862L161.186.269z" fill="#F03358"/></svg>