<svg width="32" height="21" viewBox="0 0 32 21" fill="none" xmlns="http://www.w3.org/2000/svg">
<path d="M0.195335 10.964L10.1953 20.8077C10.4558 21.0641 10.8776 21.0641 11.138 20.8077C11.3985 20.5514 11.3985 20.1361 11.138 19.8798L2.27602 11.1562L31.3333 11.1562C31.7018 11.1562 32 10.8627 32 10.5C32 10.1372 31.7018 9.84369 31.3333 9.84369L2.27602 9.84369L11.138 1.12022C11.3985 0.86385 11.3985 0.448568 11.138 0.192261C11.0078 0.064108 10.8372 5.2651e-07 10.6666 5.2651e-07C10.4961 5.2651e-07 10.3255 0.064108 10.1953 0.192261L0.195272 10.036C-0.0651025 10.2923 -0.0651021 10.7076 0.195335 10.964Z" fill="black"/>
</svg>
