<?xml version="1.0" encoding="UTF-8"?> <svg xmlns="http://www.w3.org/2000/svg" width="24" height="24" viewBox="0 0 24 24" fill="none"> <circle cx="12" cy="12" r="12" fill="black"></circle> <path d="M11.2773 5.9397C8.3342 5.9397 5.93964 8.33426 5.93964 11.2774C5.93964 14.2207 8.3342 16.6151 11.2773 16.6151C14.2206 16.6151 16.615 14.2207 16.615 11.2774C16.615 8.33426 14.2206 5.9397 11.2773 5.9397ZM11.2773 15.6297C8.8775 15.6297 6.92506 13.6772 6.92506 11.2774C6.92506 8.87758 8.8775 6.92512 11.2773 6.92512C13.6771 6.92512 15.6296 8.87756 15.6296 11.2774C15.6296 13.6772 13.6771 15.6297 11.2773 15.6297Z" fill="white"></path> <path d="M17.916 17.2193L15.0911 14.3944C14.8986 14.2019 14.5869 14.2019 14.3944 14.3944C14.2019 14.5867 14.2019 14.8988 14.3944 15.0911L17.2193 17.916C17.3155 18.0122 17.4415 18.0603 17.5676 18.0603C17.6936 18.0603 17.8197 18.0122 17.916 17.916C18.1085 17.7236 18.1085 17.4116 17.916 17.2193Z" fill="white"></path> </svg> 