<?xml version="1.0" encoding="UTF-8"?> <svg xmlns="http://www.w3.org/2000/svg" width="322" height="329" viewBox="0 0 322 329" fill="none"> <path d="M161.186 0.268555L175.153 103.404L232.486 16.5424L200.322 115.524L289.664 62.1405L217.738 137.364L321.396 128.032L223.954 164.599L321.396 201.166L217.738 191.833L289.664 267.057L200.322 213.673L232.486 312.655L175.153 225.793L161.186 328.929L147.219 225.793L89.8858 312.655L122.05 213.673L32.7075 267.057L104.633 191.833L0.975937 201.166L98.4174 164.599L0.975937 128.032L104.633 137.364L32.7075 62.1405L122.05 115.524L89.8858 16.5424L147.219 103.404L161.186 0.268555Z" fill="#F03358"></path> </svg> 