<svg xmlns="http://www.w3.org/2000/svg" id="Слой_1" x="0" y="0" viewBox="0 0 496 496" xml:space="preserve"><style>.st0{stroke:#000;stroke-width:4;stroke-miterlimit:10}</style><g id="Слой_2_1_"><g id="Layer_1"><path class="st0" d="M456 80h-42.1c9-34.2-11.5-69.2-45.6-78.2s-69.2 11.5-78.2 45.6c-2.8 10.7-2.8 21.9 0 32.5H40C17.9 80 0 97.9 0 120v288c0 22.1 17.9 40 40 40h112v32h-32v16h256v-16h-32v-32h112c22.1 0 40-17.9 40-40V120c0-22.1-17.9-40-40-40zm-26.6 48.7c3.5 3.5 3.4 9.2-.1 12.7-1.7 1.6-3.9 2.6-6.3 2.6s-4.7-.9-6.3-2.6l-26.3-26.3c4.8-3.6 9.1-7.9 12.7-12.7l26.3 26.3zM352 16c26.5 0 48 21.5 48 48s-21.5 48-48 48-48-21.5-48-48 21.5-48 48-48zm-24 464H168v-32h160v32zm152-72c0 13.3-10.7 24-24 24H40c-13.3 0-24-10.7-24-24v-8h464v8zm0-24H16V120c0-13.3 10.7-24 24-24h256.7c15.9 27.7 49.8 39.3 79.3 27.3l29.4 29.4c9.8 9.7 25.6 9.7 35.4-.2 4.6-4.7 7.2-11 7.2-17.5 0-6.6-2.6-13-7.3-17.7L419.3 96H456c13.3 0 24 10.7 24 24v264z"/><path class="st0" d="M272 144H48v208h224v-32h32V176h-32v-32zm-16 192H64V160h192v16h-80v144h80v16zm32-144v112h-96V192h96zm32 128h128V176H320v144zm16-128h96v112h-96V192z"/><path class="st0" d="M208 208h64v16h-64zm0 32h64v16h-64zm0 32h64v16h-64zm144-64h64v16h-64zm0 32h64v16h-64zm0 32h64v16h-64zM80 176h80v16H80zm0 32h80v16H80zm0 32h80v16H80zm0 32h80v16H80zm0 32h80v16H80zm48-256h16v16h-16zm32 0h16v16h-16zm32 0h16v16h-16zm32 0h16v16h-16zm32 0h16v16h-16z"/></g></g></svg>