<svg xmlns="http://www.w3.org/2000/svg" width="30" height="30" viewBox="0 0 49 49"><path d="M33.459 21.608c-3.095 0-3.526 3.09-3.526 3.09h6.581c0-.001.042-3.09-3.055-3.09zm-14.931 3.089h-5.834v5.356h5.165c.088 0 .219.002.374 0 .831-.02 2.406-.261 2.406-2.604-.001-2.78-2.111-2.752-2.111-2.752z" fill="#f03358"/><path d="M24.016 0C10.752 0 0 10.75 0 24.014 0 37.277 10.752 48.03 24.016 48.03c13.262 0 24.014-10.752 24.014-24.016C48.029 10.751 37.276 0 24.016 0zm5.054 14.756h8.267v2.467H29.07v-2.467zm-4.179 12.943c0 6.116-6.364 5.914-6.364 5.914H8.099V13.575h10.428c3.168 0 5.668 1.75 5.668 5.335s-3.057 3.813-3.057 3.813c4.031 0 3.753 4.976 3.753 4.976zm15.466-.328H29.973c0 3.722 3.526 3.487 3.526 3.487 3.329 0 3.213-2.156 3.213-2.156h3.527c0 5.722-6.859 5.33-6.859 5.33-8.227 0-7.698-7.661-7.698-7.661s-.008-7.698 7.698-7.698c8.112.001 6.977 8.698 6.977 8.698z" fill="#f03358"/><path d="M19.945 19.221c0-2.084-1.417-2.084-1.417-2.084h-5.834v4.471h5.472c.944 0 1.779-.304 1.779-2.387z" fill="#f03358"/></svg>