<svg xmlns="http://www.w3.org/2000/svg" width="30" height="30" viewBox="0 0 48 48"><path d="M47.762 24c0 13.121-10.639 23.76-23.761 23.76S.24 37.121.24 24C.24 10.876 10.879.24 24.001.24S47.762 10.876 47.762 24m-9.731-11.625a12.148 12.148 0 01-3.87 1.481 6.08 6.08 0 00-4.455-1.926 6.095 6.095 0 00-6.093 6.095c0 .478.054.941.156 1.388a17.302 17.302 0 01-12.559-6.367 6.066 6.066 0 00-.825 3.064 6.088 6.088 0 002.711 5.07 6.075 6.075 0 01-2.761-.762v.077c0 2.951 2.1 5.414 4.889 5.975a6.079 6.079 0 01-2.752.106 6.104 6.104 0 005.692 4.232 12.226 12.226 0 01-7.567 2.607c-.492 0-.977-.027-1.453-.084a17.241 17.241 0 009.34 2.736c11.209 0 17.337-9.283 17.337-17.337 0-.263-.004-.527-.017-.789a12.358 12.358 0 003.039-3.152 12.138 12.138 0 01-3.498.958 6.089 6.089 0 002.686-3.372" fill="#f03358"/></svg>