<?xml version="1.0" encoding="UTF-8"?> <!-- Generator: Adobe Illustrator 24.3.0, SVG Export Plug-In . SVG Version: 6.00 Build 0) --> <svg xmlns="http://www.w3.org/2000/svg" xmlns:xlink="http://www.w3.org/1999/xlink" id="Layer_1" x="0px" y="0px" viewBox="0 0 512 514" style="enable-background:new 0 0 512 514;" xml:space="preserve"> <style type="text/css"> .st0{stroke:#000000;stroke-width:2;stroke-miterlimit:10;} </style> <g> <path class="st0" d="M330.7,426.7c-7,0-12.7,5.7-12.7,12.7v21.3c0,16.5-13.5,30-30,30H53.3c-16.5,0-30-13.5-30-30V55.3 c0-16.5,13.5-30,30-30H64h21.3c4.8,0,8.7,3.9,8.7,8.7c0,18.7,15.3,34,34,34h85.3c18.7,0,34-15.3,34-34c0-4.8,3.9-8.7,8.7-8.7h21.3 H288c16.5,0,30,13.5,30,30v21.3c0,7,5.7,12.7,12.7,12.7s12.7-5.7,12.7-12.7V55.3C343.3,24.8,318.5,0,288,0h-10.7H256H85.3H64H53.3 C22.8,0-2,24.8-2,55.3v405.3c0,30.5,24.8,55.3,55.3,55.3H288c30.5,0,55.3-24.8,55.3-55.3v-21.3 C343.3,432.3,337.6,426.7,330.7,426.7z M118.2,25.3h104.9c-0.7,2.8-1.1,5.7-1.1,8.7c0,4.8-3.9,8.7-8.7,8.7H128 c-4.8,0-8.7-3.9-8.7-8.7C119.3,31,118.9,28.1,118.2,25.3z"></path> <path class="st0" d="M407.3,268.7c0-30.5-24.8-55.3-55.3-55.3c-30.5,0-55.3,24.8-55.3,55.3c0,30.5,24.8,55.3,55.3,55.3 C382.5,324,407.3,299.2,407.3,268.7z M382,268.7c0,16.5-13.5,30-30,30s-30-13.5-30-30c0-16.5,13.5-30,30-30S382,252.1,382,268.7z"></path> <path class="st0" d="M475.7,293.6l-21-15.1c0.4-3.6,0.6-6.8,0.6-9.9c0-3.2-0.2-6.5-0.6-9.9l21-15.1c9.8-7,12.6-20.2,6.6-30.6 l-17-29.5c-6-10.4-18.8-14.5-29.8-9.6l-23.8,10.8c-5.3-3.8-11-7.1-16.8-9.8l-2.6-26c-1.2-12-11.2-21-23.2-21h-34 c-12,0-22,9-23.2,21l-2.6,26c-5.8,2.7-11.5,6-16.8,9.8L268.5,174c-11-4.9-23.8-0.8-29.8,9.6l-17,29.4c-6,10.4-3.2,23.6,6.6,30.6 l21,15.1c-0.4,3.6-0.6,6.8-0.6,9.9c0,3.2,0.2,6.5,0.6,9.9l-21,15.1c-9.8,7-12.6,20.2-6.6,30.6l17,29.5c6,10.4,18.8,14.5,29.8,9.6 l23.8-10.8c5.3,3.8,11,7.1,16.8,9.8l2.6,26c1.2,12,11.2,21,23.2,21h34c12,0,22-9,23.2-21l2.6-26c5.8-2.7,11.5-6,16.8-9.8l23.9,10.8 c11,4.9,23.8,0.8,29.8-9.6l17-29.4C488.4,313.8,485.5,300.7,475.7,293.6z M325.4,341.6c-8.3-3.1-16.1-7.6-23.1-13.5 c-3.6-3.1-8.8-3.8-13.3-1.9l-29.2,13.1l-15.2-26.3l25.8-18.5c4-2.9,5.9-7.7,5.1-12.5c-0.6-3.7-1.4-8.5-1.4-13.5 c0-5,0.7-9.8,1.4-13.5c0.8-4.8-1.2-9.7-5.1-12.5l-25.8-18.5l15.2-26.3l29.1,13.2c4.5,2,9.6,1.3,13.3-1.8 c7.1-5.9,14.8-10.4,23.2-13.5c4.5-1.7,7.8-5.8,8.2-10.6l3.2-31.7h30.4l3.2,31.7c0.5,4.8,3.7,9,8.2,10.7c8.4,3.1,16.2,7.6,23.2,13.5 c3.8,3.1,8.9,3.8,13.3,1.8l29.2-13.1l15.2,26.4l-25.8,18.5c-4,2.9-5.9,7.7-5.1,12.5c0.6,3.7,1.4,8.5,1.4,13.5c0,5-0.7,9.8-1.4,13.5 c-0.8,4.8,1.2,9.7,5.1,12.5l25.8,18.5l-15.2,26.3l-29.1-13.2c-4.5-2-9.6-1.3-13.4,1.8c-7.1,5.9-14.8,10.4-23.2,13.5 c-4.5,1.7-7.8,5.8-8.2,10.6l-3.2,31.7h-30.4l-3.2-31.7C333.1,347.5,329.9,343.3,325.4,341.6z"></path> </g> </svg> 