<svg xmlns="http://www.w3.org/2000/svg" height="512" width="512"><path d="M121 285v15h90v-15c0-19.556 12.539-36.239 30-42.43v40.458L373.042 195 241 106.972v43.855C173.595 158.314 121 215.631 121 285zm135-105h15v-16.972L318.958 195 271 226.972V210h-15c-36.219 0-66.524 25.809-73.493 60h-30.438c7.3-50.817 51.126-90 103.931-90zm45 105c0 19.556-12.539 36.239-30 42.43v-40.458L138.958 375 271 463.028v-43.856c67.405-7.486 120-64.803 120-134.172v-15h-90zm28.493 15h30.438c-7.301 50.817-51.127 90-103.932 90h-15v16.972L193.042 375 241 343.028V360h15c36.219 0 66.523-25.809 73.493-60z"/><path d="M159.787 0L61 98.787V512h390V0zM151 51.213V90h-38.787zM421 482H91V120h90V30h240z"/></svg>