<svg xmlns="http://www.w3.org/2000/svg" height="512" viewBox="0 0 510 510" width="512"><path d="M0 0v330h240V98.787L141.213 0zm150 51.213L188.787 90H150zM30 300V30h90v90h90v180zm381.213-120H270v330h240V278.787zM420 231.213L458.787 270H420zM300 480V210h90v90h90v180z"/><path d="M60 60h30v30H60zm0 60h30v30H60zm0 60h120v30H60zm0 60h120v30H60zm270 0h30v30h-30zm0 60h30v30h-30zm0 60h120v30H330zm0 60h120v30H330zm-195-12.972l21.68 14.453 16.64-24.962L120 360.972l-53.32 35.547 16.64 24.962L105 407.028V510h135v-30H135zm240-304.056l-21.68-14.453-16.64 24.962L390 149.028l53.32-35.547-16.64-24.962L405 102.972V0H270v30h105z"/></svg>