<svg xmlns="http://www.w3.org/2000/svg" viewBox="0 0 512 512"><path d="M431.212 378.94c30.82-41.098 27.558-99.829-9.799-137.186a104.548 104.548 0 00-29.246-20.622v-92.345L263.382 0H.168v512h392V410.868a104.162 104.162 0 0017.817-10.729l80.518 81.409 21.33-21.096-80.621-81.512zM272.168 51.213L340.955 120h-68.787V51.213zm90 430.787h-332V30h212v120h120v62.118c-31.637-4.529-64.959 5.349-89.246 29.636-40.939 40.939-40.939 107.553 0 148.492 24.005 24.005 57.199 34.223 89.246 29.636V482zm38.034-112.967c-29.243 29.241-76.824 29.241-106.066 0-29.242-29.243-29.242-76.824 0-106.066s76.822-29.244 106.066 0c29.242 29.242 29.242 76.824 0 106.066z"/><path d="M60.17 181h212v30h-212zm0 60h152v30h-152zm0 120h152v30h-152zm0-60h152v30h-152z"/></svg>