<svg xmlns="http://www.w3.org/2000/svg" height="512pt" viewBox="0 0 512 512" width="512pt"><path d="M512 451.953V90.07H387.414C366.98 37.426 315.781 0 256 0S145.02 37.426 124.586 90.07H0v361.883h165.941V482h-45.05v30h270.218v-30h-45.05v-30.047zM354.55 90.07h-45.003c-2.723-19.441-7.086-37.61-13.192-52.468 25.16 9.863 45.864 28.66 58.196 52.468zM256 30.023c1.852.579 9.328 6.844 16.36 29.43 2.84 9.133 5.144 19.473 6.874 30.617h-46.468c1.73-11.144 4.035-21.484 6.875-30.617 7.03-22.586 14.507-28.851 16.359-29.43zm26.363 90.047c.395 6.82.606 13.782.606 20.836 0 7.059-.211 14.02-.606 20.836h-52.726a360.874 360.874 0 01-.606-20.836c0-7.054.211-14.015.606-20.836zM256 251.793c-1.852-.578-9.328-6.844-16.36-29.43-2.84-9.133-5.144-19.472-6.874-30.62h46.468c-1.73 11.148-4.035 21.487-6.875 30.62-7.03 22.586-14.507 28.852-16.359 29.43zm-56.406-90.05h-52.531c-1.29-6.75-1.97-13.716-1.97-20.837s.68-14.082 1.97-20.836h52.53a391.234 391.234 0 00-.562 20.836c0 6.922.188 13.895.563 20.836zm2.863 30c2.719 19.445 7.082 37.612 13.188 52.472-25.16-9.863-45.864-28.66-58.196-52.473zm107.086 0h45.008c-12.332 23.812-33.035 42.609-58.196 52.472 6.106-14.86 10.47-33.028 13.188-52.473zm57.363-50.837a111 111 0 01-1.969 20.836h-52.53a386.935 386.935 0 000-41.672h52.53a111.025 111.025 0 011.97 20.836zM215.645 37.602c-6.106 14.855-10.47 33.027-13.188 52.468h-45.008c12.332-23.808 33.035-42.605 58.196-52.468zm-99.008 82.468a140.998 140.998 0 00-1.543 20.836c0 77.7 63.21 140.91 140.906 140.91s140.906-63.21 140.906-140.91c0-7.078-.527-14.035-1.543-20.836H482v221.817H30V120.07zM30 371.887h452v50.066H30zM316.059 482H195.94v-30.047h120.12zm0 0"/></svg>