<svg xmlns="http://www.w3.org/2000/svg" height="512pt" viewBox="0 0 512 512" width="512pt"><path d="M75 391h166.828C249.156 457.781 305.82 512 376 512c74.465 0 135-61.426 135-136 0-32.07-11.25-61.563-30-84.746V0H30v271H0v45c0 41.355 33.645 75 75 75zm301 91c-57.898 0-105-47.55-105-106 0-57.898 47.102-105 105-105s105 47.102 105 105c0 58.45-47.102 106-105 106zM60 30h391v233.805C429.535 249.41 403.73 241 376 241c-32.074 0-61.563 11.25-84.75 30H60zM30 300.988h233.805c-11.762 17.543-19.52 37.992-21.965 60.012H181v-30h-30v30h-30v-30H91v30H75c-24.813 0-45-20.188-45-45zm0 0"/><path d="M91 150h90V60H91zm30-60h30v30h-30zm180-30h-90v90h90zm-30 60h-30V90h30zm150-60h-90v90h90zm-30 60h-30V90h30zM91 180h90v30H91zm120 0h90v30h-90zm120 0h90v30h-90zm30 219.785l-34.395-34.39-21.21 21.21L361 442.215l85.605-85.61-21.21-21.21zm0 0"/></svg>